<svg width="546" height="95" viewBox="0 0 546 95" fill="none" xmlns="http://www.w3.org/2000/svg">
<rect width="64.5905" height="64" rx="32" fill="#C60000"/>
<path d="M48.0415 21.1382C48.0314 21.1327 48.0208 21.129 48.0108 21.1239C47.9913 21.1108 47.9722 21.0973 47.9519 21.0853L32.6451 12.1449C32.305 11.9462 31.8828 11.9522 31.5485 12.1606L16.6056 21.4725C16.589 21.4827 16.5739 21.4944 16.558 21.5056C16.5541 21.5077 16.5501 21.5089 16.5462 21.511C16.2091 21.6982 16 22.0533 16 22.4389V41.5625C16 41.929 16.1891 42.2695 16.5 42.4631L31.5485 51.8394C31.7203 51.9464 31.915 52 32.1097 52C32.3068 52 32.5036 51.9452 32.6768 51.8359L48.0964 42.0885C48.4039 41.894 48.5905 41.5554 48.5905 41.1914V22.0678C48.5905 21.681 48.3802 21.325 48.0415 21.1382ZM30.1309 31.8325L18.1224 39.6106V24.3503L30.1309 31.8325ZM33.1711 33.7024L45.5156 41.2088L33.1711 49.0123V33.7024ZM34.1236 31.7977L46.4681 23.9941V39.304L34.1236 31.7977ZM45.3554 22.027L45.4865 22.1036L32.1057 30.5622L19.068 22.4387L19.2137 22.3478L32.1274 14.3006L45.3554 22.027ZM19.0402 41.545L31.0487 33.7668V49.027L19.0402 41.545Z" fill="white"/>
<path d="M81.9343 33.7969C81.9343 30.2031 82.8457 27.349 84.6686 25.2344C86.4916 23.1198 89.1218 22.0625 92.5593 22.0625C94.5384 22.0625 96.2155 22.3698 97.5905 22.9844C98.9655 23.599 99.9343 24.4896 100.497 25.6562C100.872 26.4271 100.809 26.9479 100.309 27.2188L98.4343 28.2188C97.778 28.5729 97.2363 28.375 96.8093 27.625C96.5384 27.1458 96.0332 26.7135 95.2936 26.3281C94.5645 25.9427 93.7051 25.75 92.7155 25.75C90.528 25.75 88.9968 26.4427 88.1218 27.8281C87.2468 29.2031 86.8093 31.1927 86.8093 33.7969C86.8093 36.401 87.2468 38.3958 88.1218 39.7812C88.9968 41.1562 90.528 41.8438 92.7155 41.8438C93.8926 41.8438 94.8822 41.5781 95.6843 41.0469C96.4968 40.5156 97.0593 40.0104 97.3718 39.5312C97.8822 38.75 98.4238 38.5521 98.9968 38.9375L100.872 40.1875C101.382 40.5312 101.434 41.0521 101.028 41.75C100.424 42.7917 99.3874 43.6823 97.9186 44.4219C96.4499 45.1615 94.6634 45.5312 92.5593 45.5312C89.1738 45.5312 86.5541 44.474 84.6999 42.3594C82.8561 40.2448 81.9343 37.3906 81.9343 33.7969ZM105.247 35.6719V23.4531C105.247 22.8802 105.611 22.5938 106.341 22.5938H108.716C109.445 22.5938 109.809 22.8802 109.809 23.4531V35.5156C109.809 38.3281 110.221 40.0885 111.044 40.7969C111.877 41.4948 112.814 41.8438 113.856 41.8438C114.898 41.8438 115.83 41.4948 116.653 40.7969C117.486 40.0885 117.903 38.3281 117.903 35.5156V23.4531C117.903 22.8802 118.268 22.5938 118.997 22.5938H121.372C122.101 22.5938 122.466 22.8802 122.466 23.4531V35.6719C122.466 39.3177 121.695 41.875 120.153 43.3438C118.611 44.8021 116.512 45.5312 113.856 45.5312C111.2 45.5312 109.101 44.8021 107.559 43.3438C106.018 41.875 105.247 39.3177 105.247 35.6719ZM128.716 45C127.882 45 127.466 44.6094 127.466 43.8281V23.7656C127.466 22.9844 127.882 22.5938 128.716 22.5938H134.028C138.028 22.5938 140.726 23.0885 142.122 24.0781C143.528 25.0573 144.231 26.5677 144.231 28.6094C144.231 30.0365 143.705 31.1406 142.653 31.9219C141.611 32.7031 140.601 33.1562 139.622 33.2812V33.3281C140.57 33.3906 141.684 33.8698 142.966 34.7656C144.247 35.6615 144.887 36.9271 144.887 38.5625C144.887 40.4792 144.106 42.0312 142.544 43.2188C140.981 44.4062 138.403 45 134.809 45H128.716ZM132.028 41.1875H134.309C136.518 41.1875 138.018 40.9948 138.809 40.6094C139.611 40.224 140.012 39.4427 140.012 38.2656C140.012 37.1615 139.549 36.401 138.622 35.9844C137.705 35.5573 136.268 35.3438 134.309 35.3438H132.028V41.1875ZM132.028 31.6562H134.075C135.419 31.6562 136.674 31.4219 137.841 30.9531C139.018 30.4844 139.606 29.7552 139.606 28.7656C139.606 27.9948 139.278 27.4115 138.622 27.0156C137.976 26.6094 136.46 26.4062 134.075 26.4062H132.028V31.6562ZM150.122 45C149.393 45 149.028 44.6094 149.028 43.8281V23.7656C149.028 22.9844 149.393 22.5938 150.122 22.5938H163.528C164.309 22.5938 164.7 22.9323 164.7 23.6094V25.4531C164.7 26.1302 164.309 26.4688 163.528 26.4688H153.591V31.4375H162.7C163.481 31.4375 163.872 31.776 163.872 32.4531V34.2969C163.872 34.974 163.481 35.3125 162.7 35.3125H153.591V41.125H164.028C164.809 41.125 165.2 41.4635 165.2 42.1406V43.9844C165.2 44.6615 164.809 45 164.028 45H150.122Z" fill="white"/>
<path d="M212.469 8.874V45H208.797L183.309 13.95V39.438L189.789 42.3L188.439 45H174.561V42.786L179.637 38.682V8.388L173.913 5.256L175.263 2.556H183.957L208.797 32.742V8.01L202.371 5.256L203.721 2.556H217.599V4.77L212.469 8.874ZM241.833 44.946C240.177 45.342 238.143 45.54 235.731 45.54C233.247 45.54 231.015 44.928 229.035 43.704C227.091 42.444 225.561 40.752 224.445 38.628C223.329 36.468 222.771 34.092 222.771 31.5C222.771 28.692 223.635 26.082 225.363 23.67C227.127 21.222 229.323 19.278 231.951 17.838C234.579 16.362 237.117 15.624 239.565 15.624C243.129 15.624 245.901 17.01 247.881 19.782C249.861 22.554 250.833 26.28 250.797 30.96H230.979C231.267 33.696 232.077 35.91 233.409 37.602C234.777 39.294 236.613 40.14 238.917 40.14C241.329 40.14 244.785 38.538 249.285 35.334L250.851 37.818L241.833 44.946ZM236.487 20.808C232.923 20.808 231.051 23.274 230.871 28.206H242.589C242.301 26.442 241.977 25.074 241.617 24.102C241.293 23.094 240.717 22.302 239.889 21.726C239.097 21.114 237.963 20.808 236.487 20.808ZM286.512 45H275.442V40.302L269.34 45.108C268.62 45.396 267.72 45.54 266.64 45.54C263.4 45.54 261.042 44.748 259.566 43.164C258.126 41.544 257.406 39.6 257.406 37.332C257.406 36 257.856 34.704 258.756 33.444C259.692 32.148 261.006 30.924 262.698 29.772H275.442V27.288C275.442 23.184 273.246 21.132 268.854 21.132C266.55 21.132 263.598 22.338 259.998 24.75L258.378 22.32L266.046 16.218C267.558 15.822 269.448 15.624 271.716 15.624C275.28 15.624 278.052 16.47 280.032 18.162C282.012 19.854 283.002 22.32 283.002 25.56V40.41L287.862 42.3L286.512 45ZM268.746 39.87C270.762 39.87 272.994 38.952 275.442 37.116V32.526H266.208C265.488 33.39 265.128 34.434 265.128 35.658C265.128 36.846 265.452 37.854 266.1 38.682C266.784 39.474 267.666 39.87 268.746 39.87ZM308.851 22.05C307.267 22.05 305.647 22.878 303.991 24.534V40.032L311.821 42.3L310.471 45H291.624V42.786L296.431 38.898V24.858L291.624 21.942V19.728L301.669 15.138L303.505 21.51L308.851 16.056C309.499 15.768 310.435 15.624 311.659 15.624C313.135 15.624 314.413 15.984 315.493 16.704C316.573 17.424 317.365 18.432 317.869 19.728L313.657 25.02H311.065C310.957 23.976 310.722 23.238 310.363 22.806C310.039 22.338 309.535 22.104 308.851 22.104V22.05Z" fill="white"/>
<path d="M126.61 62.7045C126.457 63.6136 126.163 64.3991 125.728 65.0611C125.294 65.7202 124.762 66.2287 124.135 66.5866C123.507 66.9418 122.826 67.1193 122.093 67.1193C121.338 67.1193 120.694 66.9347 120.163 66.5653C119.635 66.1932 119.257 65.6676 119.029 64.9886C118.805 64.3068 118.77 63.5 118.923 62.5682C119.076 61.6591 119.37 60.875 119.805 60.2159C120.24 59.554 120.772 59.0455 121.403 58.6903C122.034 58.3324 122.718 58.1534 123.457 58.1534C124.207 58.1534 124.845 58.3395 125.37 58.7116C125.899 59.081 126.275 59.6065 126.5 60.2884C126.727 60.9673 126.764 61.7727 126.61 62.7045ZM125.605 62.5682C125.73 61.8239 125.711 61.1974 125.549 60.6889C125.387 60.1804 125.119 59.7955 124.744 59.5341C124.369 59.2727 123.923 59.142 123.406 59.142C122.866 59.142 122.355 59.2798 121.872 59.5554C121.389 59.8281 120.975 60.2301 120.632 60.7614C120.288 61.2898 120.054 61.9375 119.929 62.7045C119.804 63.4489 119.822 64.0753 119.984 64.5838C120.146 65.0923 120.414 65.4773 120.789 65.7386C121.164 66 121.61 66.1307 122.127 66.1307C122.667 66.1307 123.179 65.9943 123.662 65.7216C124.145 65.446 124.558 65.044 124.902 64.5156C125.245 63.9844 125.48 63.3352 125.605 62.5682ZM128.098 61.392L128.251 60.4545H133.569L133.416 61.392H131.268L130.348 67H129.342L130.262 61.392H128.098ZM133.945 67L135.036 60.4545H136.042L135.565 63.3011H136.229L139.059 60.4545H140.354L137.184 63.608L139.298 67H138.002L136.315 64.2386H135.411L134.951 67H133.945ZM139.982 69.4545L141.49 60.4545H142.462L142.291 61.4943H142.411C142.501 61.3807 142.626 61.2358 142.786 61.0597C142.947 60.8807 143.165 60.7216 143.438 60.5824C143.713 60.4403 144.064 60.3693 144.49 60.3693C145.041 60.3693 145.503 60.5071 145.875 60.7827C146.247 61.0582 146.51 61.4489 146.663 61.9545C146.817 62.4602 146.837 63.0568 146.723 63.7443C146.609 64.4375 146.392 65.0384 146.071 65.5469C145.75 66.0526 145.358 66.4446 144.895 66.723C144.432 66.9986 143.928 67.1364 143.382 67.1364C142.962 67.1364 142.636 67.0668 142.406 66.9276C142.176 66.7855 142.009 66.625 141.903 66.446C141.798 66.2642 141.717 66.1136 141.661 65.9943H141.575L140.996 69.4545H139.982ZM141.933 63.7273C141.854 64.2216 141.854 64.6577 141.933 65.0355C142.016 65.4105 142.179 65.7045 142.423 65.9176C142.67 66.1278 142.996 66.233 143.399 66.233C143.82 66.233 144.188 66.1222 144.503 65.9006C144.821 65.6761 145.082 65.375 145.287 64.9972C145.494 64.6165 145.638 64.1932 145.717 63.7273C145.791 63.267 145.788 62.8523 145.709 62.483C145.629 62.1108 145.467 61.8168 145.223 61.6009C144.979 61.3821 144.643 61.2727 144.217 61.2727C143.808 61.2727 143.446 61.3764 143.131 61.5838C142.818 61.7884 142.56 62.0753 142.355 62.4446C142.153 62.8111 142.013 63.2386 141.933 63.7273ZM150.417 67.1364C149.814 67.1364 149.31 66.9929 148.904 66.706C148.498 66.419 148.211 66.017 148.043 65.5C147.878 64.983 147.851 64.3807 147.962 63.6932C148.07 63.0227 148.284 62.4389 148.605 61.9418C148.929 61.4418 149.331 61.0554 149.811 60.7827C150.294 60.5071 150.826 60.3693 151.405 60.3693C152.007 60.3693 152.51 60.5142 152.914 60.804C153.32 61.0909 153.607 61.4943 153.775 62.0142C153.942 62.5312 153.971 63.1364 153.86 63.8295C153.752 64.4943 153.534 65.0753 153.208 65.5724C152.884 66.0668 152.482 66.4517 152.002 66.7273C151.525 67 150.996 67.1364 150.417 67.1364ZM150.434 66.233C150.894 66.233 151.293 66.1151 151.631 65.8793C151.972 65.6435 152.248 65.3324 152.458 64.946C152.671 64.5597 152.814 64.142 152.888 63.6932C152.956 63.267 152.953 62.8707 152.88 62.5043C152.806 62.1349 152.648 61.8381 152.407 61.6136C152.165 61.3864 151.826 61.2727 151.388 61.2727C150.928 61.2727 150.526 61.392 150.182 61.6307C149.841 61.8693 149.566 62.1832 149.355 62.5724C149.145 62.9616 149.005 63.3807 148.934 63.8295C148.865 64.2557 148.867 64.652 148.938 65.0185C149.012 65.3821 149.169 65.6761 149.411 65.9006C149.655 66.1222 149.996 66.233 150.434 66.233ZM156.136 65.517L160.125 60.4545H161.284L160.193 67H159.188L160.023 61.9375L156.051 67H154.875L155.966 60.4545H156.972L156.136 65.517ZM159.81 58.2727H160.747C160.67 58.733 160.447 59.1094 160.078 59.402C159.712 59.6946 159.256 59.8409 158.71 59.8409C158.173 59.8409 157.771 59.6946 157.504 59.402C157.237 59.1094 157.142 58.733 157.219 58.2727H158.156C158.119 58.4943 158.149 58.6889 158.246 58.8565C158.342 59.0241 158.54 59.108 158.838 59.108C159.136 59.108 159.364 59.0241 159.52 58.8565C159.676 58.6889 159.773 58.4943 159.81 58.2727ZM162.082 61.392L162.235 60.4545H167.554L167.4 61.392H165.252L164.332 67H163.326L164.247 61.392H162.082ZM170.317 67.1364C169.689 67.1364 169.171 66.9972 168.762 66.7188C168.353 66.4375 168.067 66.0455 167.905 65.5426C167.743 65.0369 167.718 64.4489 167.828 63.7784C167.939 63.108 168.159 62.517 168.489 62.0057C168.819 61.4915 169.229 61.0909 169.721 60.804C170.212 60.5142 170.752 60.3693 171.34 60.3693C171.681 60.3693 172.009 60.4261 172.324 60.5398C172.64 60.6534 172.912 60.8381 173.142 61.0938C173.373 61.3466 173.533 61.6818 173.624 62.0994C173.715 62.517 173.709 63.0312 173.607 63.642L173.539 64.0682H168.493L168.63 63.1989H172.652C172.718 62.8295 172.701 62.5 172.601 62.2102C172.505 61.9205 172.336 61.6918 172.094 61.5241C171.855 61.3565 171.553 61.2727 171.186 61.2727C170.809 61.2727 170.456 61.375 170.13 61.5795C169.803 61.7812 169.53 62.0369 169.311 62.3466C169.093 62.6534 168.956 62.9659 168.902 63.2841L168.783 64.0341C168.698 64.5767 168.711 65.0085 168.821 65.3295C168.935 65.6506 169.132 65.8821 169.414 66.0241C169.695 66.1634 170.047 66.233 170.471 66.233C170.74 66.233 170.989 66.196 171.216 66.1222C171.444 66.0455 171.647 65.9318 171.826 65.7812C172.005 65.6278 172.155 65.4375 172.277 65.2102L173.198 65.483C173.042 65.8125 172.821 66.1023 172.537 66.3523C172.256 66.5994 171.926 66.7926 171.549 66.9318C171.174 67.0682 170.763 67.1364 170.317 67.1364ZM177.018 69.1136L177.512 66.0625H178.075C178.299 65.8864 178.524 65.6378 178.748 65.3168C178.975 64.9929 179.194 64.5611 179.404 64.0213C179.618 63.4787 179.811 62.7898 179.984 61.9545L180.785 58.2727H185.967L184.672 66.0625H185.677L185.183 69.0966H184.177L184.518 67H178.365L178.024 69.1136H177.018ZM179.336 66.0625H183.666L184.808 59.2102H181.586L180.99 61.9545C180.856 62.5909 180.703 63.1676 180.529 63.6847C180.359 64.1989 180.173 64.6548 179.971 65.0526C179.772 65.4474 179.561 65.7841 179.336 66.0625ZM186.405 67L186.558 66.0625H186.797C186.993 66.0625 187.162 66.0241 187.304 65.9474C187.449 65.8679 187.578 65.7301 187.692 65.5341C187.808 65.3352 187.918 65.0597 188.02 64.7074C188.125 64.3523 188.234 63.9006 188.348 63.3523L188.945 60.4545H193.308L192.217 67H191.212L192.149 61.392H189.746L189.251 63.7273C189.141 64.2642 189.014 64.7372 188.872 65.1463C188.733 65.5526 188.567 65.8935 188.374 66.169C188.183 66.4446 187.955 66.652 187.688 66.7912C187.423 66.9304 187.109 67 186.746 67H186.405ZM198 67L198.938 61.375H197.199C196.804 61.375 196.479 61.4659 196.223 61.6477C195.97 61.8295 195.818 62.0795 195.767 62.3977C195.713 62.7102 195.773 62.956 195.946 63.1349C196.122 63.3139 196.386 63.4034 196.739 63.4034H198.852L198.699 64.3409H196.585C196.142 64.3409 195.773 64.2628 195.477 64.1065C195.182 63.9503 194.972 63.7273 194.847 63.4375C194.724 63.1449 194.696 62.7983 194.761 62.3977C194.83 61.9943 194.977 61.6477 195.205 61.358C195.435 61.0682 195.732 60.8452 196.095 60.6889C196.462 60.5327 196.881 60.4545 197.352 60.4545H200.045L198.955 67H198ZM193.636 67L196.04 63.7443H197.131L194.727 67H193.636ZM212.324 61H211.284C211.272 60.696 211.21 60.429 211.096 60.1989C210.983 59.9688 210.829 59.7756 210.636 59.6193C210.446 59.4602 210.227 59.3409 209.98 59.2614C209.733 59.1818 209.468 59.142 209.187 59.142C208.647 59.142 208.136 59.2798 207.653 59.5554C207.17 59.8281 206.757 60.2301 206.413 60.7614C206.069 61.2898 205.835 61.9375 205.71 62.7045C205.585 63.4489 205.603 64.0753 205.765 64.5838C205.927 65.0923 206.196 65.4773 206.571 65.7386C206.946 66 207.392 66.1307 207.909 66.1307C208.207 66.1307 208.5 66.0909 208.787 66.0114C209.076 65.9318 209.346 65.8139 209.596 65.6577C209.849 65.4986 210.074 65.304 210.27 65.0739C210.468 64.8409 210.625 64.5739 210.738 64.2727H211.795C211.639 64.7187 211.427 65.1179 211.16 65.4702C210.896 65.8224 210.591 66.1222 210.244 66.3693C209.897 66.6136 209.524 66.7997 209.123 66.9276C208.723 67.0554 208.306 67.1193 207.875 67.1193C207.119 67.1193 206.475 66.9347 205.944 66.5653C205.416 66.1932 205.038 65.6676 204.811 64.9886C204.586 64.3068 204.551 63.5 204.704 62.5682C204.858 61.6591 205.152 60.875 205.586 60.2159C206.021 59.554 206.554 59.0455 207.184 58.6903C207.815 58.3324 208.5 58.1534 209.238 58.1534C209.681 58.1534 210.089 58.2173 210.461 58.3452C210.833 58.473 211.157 58.6605 211.433 58.9077C211.708 59.152 211.923 59.4503 212.076 59.8026C212.233 60.152 212.315 60.5511 212.324 61ZM215.634 67.1364C215.006 67.1364 214.487 66.9972 214.078 66.7188C213.669 66.4375 213.384 66.0455 213.222 65.5426C213.06 65.0369 213.034 64.4489 213.145 63.7784C213.256 63.108 213.476 62.517 213.805 62.0057C214.135 61.4915 214.545 61.0909 215.037 60.804C215.528 60.5142 216.068 60.3693 216.656 60.3693C216.997 60.3693 217.325 60.4261 217.641 60.5398C217.956 60.6534 218.229 60.8381 218.459 61.0938C218.689 61.3466 218.849 61.6818 218.94 62.0994C219.031 62.517 219.026 63.0312 218.923 63.642L218.855 64.0682H213.81L213.946 63.1989H217.969C218.034 62.8295 218.017 62.5 217.918 62.2102C217.821 61.9205 217.652 61.6918 217.411 61.5241C217.172 61.3565 216.869 61.2727 216.503 61.2727C216.125 61.2727 215.773 61.375 215.446 61.5795C215.119 61.7812 214.847 62.0369 214.628 62.3466C214.409 62.6534 214.273 62.9659 214.219 63.2841L214.099 64.0341C214.014 64.5767 214.027 65.0085 214.138 65.3295C214.251 65.6506 214.449 65.8821 214.73 66.0241C215.011 66.1634 215.364 66.233 215.787 66.233C216.057 66.233 216.305 66.196 216.533 66.1222C216.76 66.0455 216.963 65.9318 217.142 65.7812C217.321 65.6278 217.472 65.4375 217.594 65.2102L218.514 65.483C218.358 65.8125 218.138 66.1023 217.854 66.3523C217.572 66.5994 217.243 66.7926 216.865 66.9318C216.49 67.0682 216.08 67.1364 215.634 67.1364ZM226.272 58L226.681 58.6136C226.454 58.8068 226.202 58.9418 225.927 59.0185C225.654 59.0952 225.352 59.142 225.019 59.1591C224.69 59.1761 224.323 59.1932 223.92 59.2102C223.46 59.2273 223.062 59.3381 222.727 59.5426C222.394 59.7472 222.116 60.0426 221.891 60.429C221.667 60.8153 221.485 61.2898 221.346 61.8523H221.431C221.721 61.4432 222.077 61.142 222.501 60.9489C222.924 60.7557 223.363 60.6591 223.817 60.6591C224.326 60.6591 224.763 60.7784 225.13 61.017C225.499 61.2557 225.765 61.6094 225.927 62.0781C226.089 62.5469 226.113 63.125 225.999 63.8125C225.886 64.4972 225.667 65.0881 225.343 65.5852C225.019 66.0824 224.616 66.4659 224.133 66.7358C223.653 67.0028 223.121 67.1364 222.539 67.1364C221.954 67.1364 221.464 66.9986 221.069 66.723C220.674 66.4446 220.398 66.0327 220.242 65.4872C220.086 64.9389 220.073 64.2614 220.204 63.4545L220.323 62.7557C220.567 61.2983 220.999 60.1932 221.619 59.4403C222.241 58.6875 223.053 58.2983 224.056 58.2727C224.408 58.2614 224.721 58.2585 224.994 58.2642C225.269 58.2699 225.511 58.2571 225.718 58.2259C225.928 58.1946 226.113 58.1193 226.272 58ZM222.675 66.233C223.073 66.233 223.431 66.1335 223.749 65.9347C224.07 65.7358 224.337 65.456 224.55 65.0952C224.763 64.7315 224.911 64.304 224.994 63.8125C225.073 63.3352 225.063 62.929 224.964 62.5938C224.864 62.2585 224.685 62.0028 224.427 61.8267C224.168 61.6506 223.84 61.5625 223.442 61.5625C223.15 61.5625 222.879 61.6122 222.629 61.7116C222.379 61.8111 222.154 61.9574 221.955 62.1506C221.759 62.3437 221.593 62.5795 221.457 62.858C221.323 63.1364 221.224 63.4545 221.158 63.8125C221.036 64.5455 221.11 65.1321 221.38 65.5724C221.653 66.0128 222.085 66.233 222.675 66.233ZM230.941 67L231.879 61.375H230.14C229.745 61.375 229.42 61.4659 229.164 61.6477C228.912 61.8295 228.76 62.0795 228.708 62.3977C228.654 62.7102 228.714 62.956 228.887 63.1349C229.064 63.3139 229.328 63.4034 229.68 63.4034H231.794L231.64 64.3409H229.527C229.083 64.3409 228.714 64.2628 228.419 64.1065C228.123 63.9503 227.913 63.7273 227.788 63.4375C227.666 63.1449 227.637 62.7983 227.703 62.3977C227.771 61.9943 227.919 61.6477 228.146 61.358C228.376 61.0682 228.673 60.8452 229.037 60.6889C229.403 60.5327 229.822 60.4545 230.294 60.4545H232.987L231.896 67H230.941ZM226.578 67L228.981 63.7443H230.072L227.669 67H226.578ZM243.373 62.2784L243.219 63.2159H239.623L239.776 62.2784H243.373ZM237.373 64.2727H238.464C238.455 64.8864 238.583 65.358 238.847 65.6875C239.112 66.017 239.597 66.1818 240.305 66.1818C240.805 66.1818 241.246 66.0412 241.63 65.7599C242.013 65.4787 242.329 65.1065 242.576 64.6435C242.823 64.1804 242.992 63.6761 243.083 63.1307L243.237 62.1591C243.339 61.5568 243.333 61.027 243.219 60.5696C243.109 60.1094 242.897 59.7514 242.585 59.4957C242.275 59.2372 241.873 59.108 241.379 59.108C240.947 59.108 240.576 59.1847 240.266 59.3381C239.957 59.4915 239.698 59.7116 239.491 59.9986C239.283 60.2855 239.117 60.6307 238.992 61.0341H237.901C238.049 60.4773 238.283 59.983 238.604 59.5511C238.925 59.1165 239.33 58.7756 239.819 58.5284C240.308 58.2784 240.879 58.1534 241.532 58.1534C242.242 58.1534 242.829 58.3196 243.292 58.652C243.755 58.9815 244.077 59.446 244.259 60.0455C244.441 60.642 244.464 61.3409 244.327 62.142L244.174 63.1477C244.038 63.9489 243.781 64.6477 243.403 65.2443C243.025 65.8381 242.558 66.2997 242.001 66.6293C241.444 66.956 240.827 67.1193 240.151 67.1193C239.458 67.1193 238.903 66.9943 238.485 66.7443C238.067 66.4915 237.771 66.1506 237.594 65.7216C237.418 65.2898 237.344 64.8068 237.373 64.2727ZM245.168 67L246.259 60.4545H247.265L246.787 63.3011H247.452L250.282 60.4545H251.577L248.407 63.608L250.52 67H249.225L247.537 64.2386H246.634L246.174 67H245.168ZM253.986 67.1364C253.369 67.1364 252.864 66.9915 252.469 66.7017C252.077 66.4119 251.804 66.0128 251.651 65.5043C251.497 64.9957 251.474 64.4148 251.582 63.7614C251.69 63.0966 251.909 62.5099 252.239 62.0014C252.568 61.4901 252.979 61.0909 253.47 60.804C253.962 60.5142 254.503 60.3693 255.094 60.3693C255.554 60.3693 255.955 60.4545 256.295 60.625C256.636 60.7955 256.899 61.0341 257.084 61.3409C257.268 61.6477 257.355 62.0057 257.344 62.4148H256.338C256.31 62.1165 256.182 61.8523 255.955 61.6222C255.73 61.3892 255.398 61.2727 254.957 61.2727C254.565 61.2727 254.205 61.375 253.875 61.5795C253.545 61.7812 253.268 62.0668 253.044 62.4361C252.82 62.8026 252.668 63.233 252.588 63.7273C252.503 64.233 252.51 64.6733 252.609 65.0483C252.709 65.4233 252.889 65.7145 253.151 65.9219C253.412 66.1293 253.741 66.233 254.139 66.233C254.401 66.233 254.645 66.1875 254.872 66.0966C255.099 66.0057 255.301 65.875 255.477 65.7045C255.653 65.5341 255.793 65.3295 255.895 65.0909H256.901C256.776 65.4773 256.575 65.8253 256.3 66.1349C256.024 66.4418 255.69 66.6861 255.298 66.8679C254.906 67.0469 254.469 67.1364 253.986 67.1364ZM258.047 67L259.138 60.4545H260.143L259.666 63.3011H260.331L263.161 60.4545H264.456L261.286 63.608L263.399 67H262.104L260.416 64.2386H259.513L259.053 67H258.047ZM263.913 67L264.066 66.0625H264.305C264.501 66.0625 264.67 66.0241 264.812 65.9474C264.957 65.8679 265.086 65.7301 265.2 65.5341C265.316 65.3352 265.425 65.0597 265.528 64.7074C265.633 64.3523 265.742 63.9006 265.856 63.3523L266.452 60.4545H270.816L269.725 67H268.719L269.657 61.392H267.254L266.759 63.7273C266.648 64.2642 266.522 64.7372 266.38 65.1463C266.241 65.5526 266.075 65.8935 265.881 66.169C265.691 66.4446 265.462 66.652 265.195 66.7912C264.931 66.9304 264.617 67 264.254 67H263.913ZM275.32 63.3182L275.167 64.2557H271.707L271.86 63.3182H275.32ZM273.19 60.4545L272.099 67H271.093L272.184 60.4545H273.19ZM276.701 67.1364C276.11 67.1364 275.614 66.9957 275.214 66.7145C274.816 66.4332 274.535 66.0398 274.37 65.5341C274.208 65.0284 274.184 64.4375 274.298 63.7614C274.411 63.0795 274.634 62.4844 274.967 61.9759C275.299 61.4673 275.711 61.0724 276.202 60.7912C276.694 60.5099 277.235 60.3693 277.826 60.3693C278.417 60.3693 278.911 60.5099 279.309 60.7912C279.71 61.0724 279.991 61.4673 280.153 61.9759C280.317 62.4844 280.343 63.0795 280.229 63.7614C280.116 64.4375 279.893 65.0284 279.56 65.5341C279.228 66.0398 278.816 66.4332 278.325 66.7145C277.833 66.9957 277.292 67.1364 276.701 67.1364ZM276.854 66.233C277.303 66.233 277.691 66.1179 278.018 65.8878C278.344 65.6577 278.609 65.3551 278.81 64.9801C279.012 64.6051 279.15 64.1989 279.224 63.7614C279.292 63.3239 279.288 62.9162 279.211 62.5384C279.134 62.1605 278.971 61.8551 278.721 61.6222C278.471 61.3892 278.121 61.2727 277.673 61.2727C277.224 61.2727 276.835 61.3892 276.505 61.6222C276.175 61.8551 275.91 62.1605 275.708 62.5384C275.506 62.9162 275.371 63.3239 275.303 63.7614C275.229 64.1989 275.231 64.6051 275.308 64.9801C275.387 65.3551 275.552 65.6577 275.802 65.8878C276.055 66.1179 276.406 66.233 276.854 66.233ZM281.192 65.3295H282.266C282.238 65.625 282.333 65.8494 282.552 66.0028C282.773 66.1562 283.082 66.233 283.477 66.233C283.88 66.233 284.238 66.1506 284.55 65.9858C284.866 65.8182 285.053 65.5483 285.113 65.1761C285.15 64.9574 285.129 64.767 285.049 64.6051C284.969 64.4403 284.839 64.3125 284.657 64.2216C284.478 64.1307 284.255 64.0852 283.988 64.0852H282.863L283.016 63.1818H284.141C284.539 63.1818 284.849 63.0909 285.07 62.9091C285.292 62.7273 285.425 62.5 285.471 62.2273C285.519 61.9347 285.454 61.7003 285.275 61.5241C285.096 61.3452 284.815 61.2557 284.431 61.2557C284.05 61.2557 283.718 61.3423 283.434 61.5156C283.15 61.6861 282.977 61.9062 282.914 62.1761H281.857C281.928 61.8239 282.089 61.5128 282.339 61.2429C282.589 60.9702 282.903 60.7571 283.281 60.6037C283.661 60.4474 284.079 60.3693 284.533 60.3693C284.994 60.3693 285.38 60.4503 285.692 60.6122C286.005 60.7713 286.231 60.9886 286.37 61.2642C286.512 61.5369 286.553 61.8466 286.494 62.1932C286.434 62.5625 286.281 62.8608 286.033 63.0881C285.789 63.3153 285.505 63.4773 285.181 63.5739L285.164 63.642C285.408 63.6591 285.61 63.7386 285.769 63.8807C285.931 64.0199 286.043 64.2031 286.106 64.4304C286.171 64.6548 286.181 64.9034 286.136 65.1761C286.07 65.5739 285.907 65.9205 285.646 66.2159C285.384 66.5085 285.055 66.7358 284.657 66.8977C284.259 67.0568 283.82 67.1364 283.34 67.1364C282.877 67.1364 282.475 67.0611 282.134 66.9105C281.796 66.7571 281.542 66.5455 281.371 66.2756C281.204 66.0028 281.144 65.6875 281.192 65.3295ZM288.511 65.517L292.5 60.4545H293.659L292.568 67H291.562L292.398 61.9375L288.426 67H287.25L288.341 60.4545H289.347L288.511 65.517ZM294.41 67L295.501 60.4545H298.177C298.876 60.4545 299.407 60.6151 299.771 60.9361C300.135 61.2543 300.274 61.6733 300.189 62.1932C300.12 62.5938 299.95 62.902 299.677 63.1179C299.404 63.3338 299.081 63.4801 298.706 63.5568C298.939 63.5909 299.157 63.6761 299.362 63.8125C299.569 63.9489 299.727 64.1364 299.835 64.375C299.946 64.6136 299.973 64.9034 299.916 65.2443C299.859 65.5795 299.723 65.8793 299.507 66.1435C299.294 66.4077 299.015 66.6165 298.672 66.7699C298.331 66.9233 297.939 67 297.495 67H294.41ZM295.518 66.0795H297.649C297.998 66.0795 298.285 65.9972 298.51 65.8324C298.734 65.6648 298.868 65.4403 298.91 65.1591C298.97 64.8182 298.916 64.5511 298.748 64.358C298.583 64.1648 298.331 64.0682 297.99 64.0682H295.859L295.518 66.0795ZM295.995 63.1989H297.717C297.984 63.1989 298.221 63.1619 298.429 63.0881C298.636 63.0114 298.804 62.9034 298.931 62.7642C299.059 62.6222 299.137 62.4545 299.166 62.2614C299.217 61.9886 299.139 61.7727 298.931 61.6136C298.727 61.4545 298.424 61.375 298.024 61.375H296.302L295.995 63.1989ZM306.143 63.267L305.989 64.2045H302.376L302.529 63.267H306.143ZM303.245 60.4545L302.154 67H301.148L302.239 60.4545H303.245ZM307.387 60.4545L306.296 67H305.29L306.381 60.4545H307.387ZM309.701 62.8239H311.576C312.343 62.8239 312.896 63.0185 313.234 63.4077C313.575 63.7969 313.698 64.2898 313.604 64.8864C313.536 65.2784 313.384 65.6349 313.148 65.956C312.913 66.2741 312.603 66.5284 312.219 66.7188C311.836 66.9062 311.388 67 310.877 67H308.133L309.224 60.4545H310.229L309.292 66.0625H311.031C311.431 66.0625 311.776 65.9588 312.066 65.7514C312.359 65.5412 312.531 65.2699 312.582 64.9375C312.641 64.5881 312.56 64.3054 312.339 64.0895C312.12 63.8707 311.815 63.7614 311.423 63.7614H309.548L309.701 62.8239ZM314.286 67L315.377 60.4545H316.383L315.292 67H314.286ZM319.86 67.1364C319.232 67.1364 318.714 66.9972 318.305 66.7188C317.896 66.4375 317.61 66.0455 317.448 65.5426C317.286 65.0369 317.261 64.4489 317.371 63.7784C317.482 63.108 317.702 62.517 318.032 62.0057C318.362 61.4915 318.772 61.0909 319.263 60.804C319.755 60.5142 320.295 60.3693 320.883 60.3693C321.224 60.3693 321.552 60.4261 321.867 60.5398C322.183 60.6534 322.455 60.8381 322.685 61.0938C322.915 61.3466 323.076 61.6818 323.167 62.0994C323.258 62.517 323.252 63.0312 323.15 63.642L323.082 64.0682H318.036L318.173 63.1989H322.195C322.261 62.8295 322.244 62.5 322.144 62.2102C322.048 61.9205 321.879 61.6918 321.637 61.5241C321.398 61.3565 321.096 61.2727 320.729 61.2727C320.352 61.2727 319.999 61.375 319.673 61.5795C319.346 61.7812 319.073 62.0369 318.854 62.3466C318.636 62.6534 318.499 62.9659 318.445 63.2841L318.326 64.0341C318.241 64.5767 318.254 65.0085 318.364 65.3295C318.478 65.6506 318.675 65.8821 318.957 66.0241C319.238 66.1634 319.59 66.233 320.013 66.233C320.283 66.233 320.532 66.196 320.759 66.1222C320.987 66.0455 321.19 65.9318 321.369 65.7812C321.548 65.6278 321.698 65.4375 321.82 65.2102L322.741 65.483C322.585 65.8125 322.364 66.1023 322.08 66.3523C321.799 66.5994 321.469 66.7926 321.092 66.9318C320.717 67.0682 320.306 67.1364 319.86 67.1364ZM329.101 58.2727H330.141L329.007 65.142H329.092L334.999 58.2727H336.021L334.572 67H333.516L334.658 60.1477H334.572L328.675 67H327.652L329.101 58.2727ZM336.423 65.3295H337.497C337.468 65.625 337.564 65.8494 337.782 66.0028C338.004 66.1562 338.312 66.233 338.707 66.233C339.11 66.233 339.468 66.1506 339.781 65.9858C340.096 65.8182 340.284 65.5483 340.343 65.1761C340.38 64.9574 340.359 64.767 340.279 64.6051C340.2 64.4403 340.069 64.3125 339.887 64.2216C339.708 64.1307 339.485 64.0852 339.218 64.0852H338.093L338.247 63.1818H339.372C339.77 63.1818 340.079 63.0909 340.301 62.9091C340.522 62.7273 340.656 62.5 340.701 62.2273C340.75 61.9347 340.684 61.7003 340.505 61.5241C340.326 61.3452 340.045 61.2557 339.662 61.2557C339.281 61.2557 338.949 61.3423 338.664 61.5156C338.38 61.6861 338.207 61.9062 338.145 62.1761H337.088C337.159 61.8239 337.319 61.5128 337.569 61.2429C337.819 60.9702 338.133 60.7571 338.511 60.6037C338.892 60.4474 339.309 60.3693 339.764 60.3693C340.224 60.3693 340.61 60.4503 340.923 60.6122C341.235 60.7713 341.461 60.9886 341.6 61.2642C341.743 61.5369 341.784 61.8466 341.724 62.1932C341.664 62.5625 341.511 62.8608 341.264 63.0881C341.02 63.3153 340.735 63.4773 340.412 63.5739L340.395 63.642C340.639 63.6591 340.841 63.7386 341 63.8807C341.162 64.0199 341.274 64.2031 341.336 64.4304C341.402 64.6548 341.412 64.9034 341.366 65.1761C341.301 65.5739 341.137 65.9205 340.876 66.2159C340.615 66.5085 340.285 66.7358 339.887 66.8977C339.49 67.0568 339.051 67.1364 338.571 67.1364C338.108 67.1364 337.706 67.0611 337.365 66.9105C337.027 66.7571 336.772 66.5455 336.602 66.2756C336.434 66.0028 336.375 65.6875 336.423 65.3295ZM341.475 68.875L341.952 66.0625H342.498C342.651 65.9233 342.789 65.7727 342.911 65.6108C343.036 65.4489 343.152 65.2571 343.26 65.0355C343.368 64.8111 343.475 64.5384 343.58 64.2173C343.685 63.8935 343.796 63.5028 343.912 63.0455L344.56 60.4545H348.719L347.799 66.0625H348.804L348.327 68.875H347.321L347.628 67H342.787L342.48 68.875H341.475ZM343.64 66.0625H346.793L347.56 61.392H345.344L344.901 63.0455C344.716 63.7301 344.529 64.3281 344.338 64.8395C344.151 65.3509 343.918 65.7585 343.64 66.0625ZM352.708 67.1364C352.08 67.1364 351.561 66.9972 351.152 66.7188C350.743 66.4375 350.458 66.0455 350.296 65.5426C350.134 65.0369 350.108 64.4489 350.219 63.7784C350.33 63.108 350.55 62.517 350.88 62.0057C351.209 61.4915 351.62 61.0909 352.111 60.804C352.603 60.5142 353.142 60.3693 353.73 60.3693C354.071 60.3693 354.4 60.4261 354.715 60.5398C355.03 60.6534 355.303 60.8381 355.533 61.0938C355.763 61.3466 355.924 61.6818 356.015 62.0994C356.105 62.517 356.1 63.0312 355.998 63.642L355.929 64.0682H350.884L351.02 63.1989H355.043C355.108 62.8295 355.091 62.5 354.992 62.2102C354.895 61.9205 354.726 61.6918 354.485 61.5241C354.246 61.3565 353.944 61.2727 353.577 61.2727C353.199 61.2727 352.847 61.375 352.52 61.5795C352.194 61.7812 351.921 62.0369 351.702 62.3466C351.483 62.6534 351.347 62.9659 351.293 63.2841L351.174 64.0341C351.088 64.5767 351.101 65.0085 351.212 65.3295C351.326 65.6506 351.523 65.8821 351.804 66.0241C352.086 66.1634 352.438 66.233 352.861 66.233C353.131 66.233 353.38 66.196 353.607 66.1222C353.834 66.0455 354.037 65.9318 354.216 65.7812C354.395 65.6278 354.546 65.4375 354.668 65.2102L355.588 65.483C355.432 65.8125 355.212 66.1023 354.928 66.3523C354.647 66.5994 354.317 66.7926 353.939 66.9318C353.564 67.0682 353.154 67.1364 352.708 67.1364ZM356.409 67L356.562 66.0625H356.801C356.997 66.0625 357.166 66.0241 357.308 65.9474C357.453 65.8679 357.582 65.7301 357.696 65.5341C357.812 65.3352 357.922 65.0597 358.024 64.7074C358.129 64.3523 358.238 63.9006 358.352 63.3523L358.949 60.4545H363.312L362.221 67H361.216L362.153 61.392H359.75L359.255 63.7273C359.145 64.2642 359.018 64.7372 358.876 65.1463C358.737 65.5526 358.571 65.8935 358.377 66.169C358.187 66.4446 357.958 66.652 357.691 66.7912C357.427 66.9304 357.113 67 356.75 67H356.409ZM365.328 65.517L369.316 60.4545H370.475L369.385 67H368.379L369.214 61.9375L365.243 67H364.066L365.157 60.4545H366.163L365.328 65.517ZM375.164 67L376.102 61.375H374.363C373.968 61.375 373.643 61.4659 373.387 61.6477C373.134 61.8295 372.982 62.0795 372.931 62.3977C372.877 62.7102 372.937 62.956 373.11 63.1349C373.286 63.3139 373.55 63.4034 373.903 63.4034H376.016L375.863 64.3409H373.749C373.306 64.3409 372.937 64.2628 372.641 64.1065C372.346 63.9503 372.136 63.7273 372.011 63.4375C371.888 63.1449 371.86 62.7983 371.925 62.3977C371.994 61.9943 372.141 61.6477 372.369 61.358C372.599 61.0682 372.896 60.8452 373.259 60.6889C373.626 60.5327 374.045 60.4545 374.516 60.4545H377.21L376.119 67H375.164ZM370.8 67L373.204 63.7443H374.295L371.891 67H370.8ZM381.476 67L382.925 58.2727H385.874C386.556 58.2727 387.094 58.3949 387.489 58.6392C387.887 58.8835 388.155 59.2145 388.294 59.6321C388.436 60.0497 388.465 60.517 388.38 61.0341C388.294 61.5455 388.111 62.0114 387.83 62.4318C387.551 62.8523 387.174 63.1875 386.696 63.4375C386.222 63.6875 385.647 63.8125 384.971 63.8125H382.857L383.01 62.875H385.09C385.556 62.875 385.945 62.794 386.257 62.6321C386.57 62.4702 386.814 62.25 386.99 61.9716C387.167 61.6932 387.283 61.3807 387.34 61.0341C387.397 60.6818 387.382 60.3693 387.297 60.0966C387.215 59.821 387.043 59.6051 386.782 59.4489C386.523 59.2898 386.158 59.2102 385.686 59.2102H383.828L382.533 67H381.476ZM389.192 69.4545C389.022 69.4545 388.871 69.4403 388.741 69.4119C388.613 69.3864 388.525 69.3608 388.477 69.3352L388.886 68.4489C389.119 68.5114 389.326 68.5298 389.508 68.5043C389.692 68.4815 389.867 68.392 390.032 68.2358C390.2 68.0824 390.374 67.8409 390.556 67.5114L390.837 67L389.525 60.4545H390.573L391.511 65.6875H391.579L394.255 60.4545H395.388L391.374 67.946C391.187 68.2955 390.981 68.581 390.756 68.8026C390.532 69.0241 390.289 69.1875 390.028 69.2926C389.766 69.4006 389.488 69.4545 389.192 69.4545ZM401.545 60.4545L400.471 67H399.466L400.539 60.4545H401.545ZM400.642 63.5739L400.488 64.5114C400.247 64.5966 400.008 64.6719 399.772 64.7372C399.537 64.7997 399.292 64.8494 399.039 64.8864C398.789 64.9205 398.517 64.9375 398.221 64.9375C397.477 64.9375 396.914 64.7372 396.534 64.3366C396.153 63.9361 396.028 63.3352 396.159 62.5341L396.5 60.4375H397.505L397.164 62.5341C397.11 62.8693 397.129 63.1449 397.22 63.3608C397.311 63.5767 397.457 63.7372 397.659 63.8423C397.863 63.9474 398.102 64 398.375 64C398.798 64 399.189 63.9616 399.547 63.8849C399.907 63.8054 400.272 63.7017 400.642 63.5739ZM407.311 63.267L407.157 64.2045H403.544L403.697 63.267H407.311ZM404.413 60.4545L403.322 67H402.316L403.407 60.4545H404.413ZM408.555 60.4545L407.464 67H406.458L407.549 60.4545H408.555ZM412.002 67.1364C411.4 67.1364 410.896 66.9929 410.49 66.706C410.083 66.419 409.797 66.017 409.629 65.5C409.464 64.983 409.437 64.3807 409.548 63.6932C409.656 63.0227 409.87 62.4389 410.191 61.9418C410.515 61.4418 410.917 61.0554 411.397 60.7827C411.88 60.5071 412.412 60.3693 412.991 60.3693C413.593 60.3693 414.096 60.5142 414.5 60.804C414.906 61.0909 415.193 61.4943 415.36 62.0142C415.528 62.5312 415.556 63.1364 415.446 63.8295C415.338 64.4943 415.12 65.0753 414.794 65.5724C414.47 66.0668 414.068 66.4517 413.588 66.7273C413.11 67 412.582 67.1364 412.002 67.1364ZM412.02 66.233C412.48 66.233 412.879 66.1151 413.217 65.8793C413.558 65.6435 413.833 65.3324 414.044 64.946C414.257 64.5597 414.4 64.142 414.474 63.6932C414.542 63.267 414.539 62.8707 414.466 62.5043C414.392 62.1349 414.234 61.8381 413.993 61.6136C413.751 61.3864 413.412 61.2727 412.974 61.2727C412.514 61.2727 412.112 61.392 411.768 61.6307C411.427 61.8693 411.152 62.1832 410.941 62.5724C410.731 62.9616 410.591 63.3807 410.52 63.8295C410.451 64.2557 410.453 64.652 410.524 65.0185C410.598 65.3821 410.755 65.6761 410.997 65.9006C411.241 66.1222 411.582 66.233 412.02 66.233ZM417.722 65.517L421.711 60.4545H422.87L421.779 67H420.773L421.609 61.9375L417.637 67H416.461L417.552 60.4545H418.558L417.722 65.517ZM421.396 58.2727H422.333C422.256 58.733 422.033 59.1094 421.664 59.402C421.298 59.6946 420.842 59.8409 420.296 59.8409C419.759 59.8409 419.357 59.6946 419.09 59.402C418.823 59.1094 418.728 58.733 418.805 58.2727H419.742C419.705 58.4943 419.735 58.6889 419.832 58.8565C419.928 59.0241 420.126 59.108 420.424 59.108C420.722 59.108 420.95 59.0241 421.106 58.8565C421.262 58.6889 421.359 58.4943 421.396 58.2727ZM427.132 67L428.581 58.2727H431.53C432.212 58.2727 432.75 58.3949 433.145 58.6392C433.543 58.8835 433.811 59.2145 433.951 59.6321C434.093 60.0497 434.121 60.517 434.036 61.0341C433.951 61.5455 433.767 62.0114 433.486 62.4318C433.208 62.8523 432.83 63.1875 432.353 63.4375C431.878 63.6875 431.303 63.8125 430.627 63.8125H428.513L428.667 62.875H430.746C431.212 62.875 431.601 62.794 431.914 62.6321C432.226 62.4702 432.471 62.25 432.647 61.9716C432.823 61.6932 432.939 61.3807 432.996 61.0341C433.053 60.6818 433.039 60.3693 432.953 60.0966C432.871 59.821 432.699 59.6051 432.438 59.4489C432.179 59.2898 431.814 59.2102 431.343 59.2102H429.485L428.189 67H427.132ZM436.511 67.1534C436.096 67.1534 435.732 67.0753 435.42 66.919C435.107 66.7599 434.876 66.5312 434.725 66.233C434.575 65.9318 434.533 65.5682 434.602 65.142C434.667 64.767 434.793 64.4631 434.981 64.2301C435.168 63.9943 435.396 63.8097 435.663 63.6761C435.933 63.5398 436.222 63.4389 436.532 63.3736C436.844 63.3054 437.156 63.2528 437.465 63.2159C437.869 63.1648 438.197 63.125 438.45 63.0966C438.702 63.0682 438.893 63.0213 439.021 62.956C439.148 62.8906 439.227 62.7784 439.255 62.6193V62.5852C439.323 62.1676 439.268 61.8423 439.089 61.6094C438.91 61.3736 438.59 61.2557 438.13 61.2557C437.653 61.2557 437.254 61.3608 436.933 61.571C436.612 61.7812 436.374 62.0057 436.221 62.2443L435.335 61.9034C435.567 61.5057 435.846 61.196 436.17 60.9744C436.494 60.75 436.833 60.5937 437.188 60.5057C437.543 60.4148 437.886 60.3693 438.215 60.3693C438.425 60.3693 438.663 60.3949 438.927 60.446C439.191 60.4943 439.438 60.5952 439.668 60.7486C439.901 60.902 440.076 61.1335 440.192 61.4432C440.312 61.7528 440.329 62.1676 440.244 62.6875L439.528 67H438.522L438.675 66.1136H438.624C438.533 66.2557 438.394 66.4077 438.207 66.5696C438.022 66.7315 437.788 66.8693 437.504 66.983C437.222 67.0966 436.891 67.1534 436.511 67.1534ZM436.8 66.25C437.198 66.25 437.546 66.1719 437.844 66.0156C438.146 65.8594 438.387 65.6577 438.569 65.4105C438.754 65.1634 438.869 64.9034 438.914 64.6307L439.067 63.7102C439.016 63.7614 438.915 63.8082 438.765 63.8509C438.614 63.8906 438.444 63.9261 438.254 63.9574C438.066 63.9858 437.883 64.0114 437.704 64.0341C437.528 64.054 437.386 64.071 437.278 64.0852C437.011 64.1193 436.756 64.1747 436.515 64.2514C436.276 64.3253 436.075 64.4375 435.91 64.5881C435.748 64.7358 435.647 64.9375 435.607 65.1932C435.548 65.5426 435.631 65.8068 435.859 65.9858C436.086 66.1619 436.4 66.25 436.8 66.25ZM447.721 58L448.13 58.6136C447.903 58.8068 447.652 58.9418 447.376 59.0185C447.103 59.0952 446.801 59.142 446.468 59.1591C446.139 59.1761 445.772 59.1932 445.369 59.2102C444.909 59.2273 444.511 59.3381 444.176 59.5426C443.843 59.7472 443.565 60.0426 443.341 60.429C443.116 60.8153 442.934 61.2898 442.795 61.8523H442.88C443.17 61.4432 443.527 61.142 443.95 60.9489C444.373 60.7557 444.812 60.6591 445.267 60.6591C445.775 60.6591 446.213 60.7784 446.579 61.017C446.949 61.2557 447.214 61.6094 447.376 62.0781C447.538 62.5469 447.562 63.125 447.449 63.8125C447.335 64.4972 447.116 65.0881 446.792 65.5852C446.468 66.0824 446.065 66.4659 445.582 66.7358C445.102 67.0028 444.571 67.1364 443.988 67.1364C443.403 67.1364 442.913 66.9986 442.518 66.723C442.123 66.4446 441.848 66.0327 441.691 65.4872C441.535 64.9389 441.522 64.2614 441.653 63.4545L441.772 62.7557C442.017 61.2983 442.449 60.1932 443.068 59.4403C443.69 58.6875 444.502 58.2983 445.505 58.2727C445.858 58.2614 446.17 58.2585 446.443 58.2642C446.718 58.2699 446.96 58.2571 447.167 58.2259C447.377 58.1946 447.562 58.1193 447.721 58ZM444.125 66.233C444.522 66.233 444.88 66.1335 445.199 65.9347C445.52 65.7358 445.787 65.456 446 65.0952C446.213 64.7315 446.36 64.304 446.443 63.8125C446.522 63.3352 446.512 62.929 446.413 62.5938C446.314 62.2585 446.135 62.0028 445.876 61.8267C445.618 61.6506 445.289 61.5625 444.892 61.5625C444.599 61.5625 444.328 61.6122 444.078 61.7116C443.828 61.8111 443.603 61.9574 443.404 62.1506C443.208 62.3437 443.042 62.5795 442.906 62.858C442.772 63.1364 442.673 63.4545 442.608 63.8125C442.485 64.5455 442.559 65.1321 442.829 65.5724C443.102 66.0128 443.534 66.233 444.125 66.233ZM451.155 67.1364C450.553 67.1364 450.048 66.9929 449.642 66.706C449.236 66.419 448.949 66.017 448.781 65.5C448.616 64.983 448.589 64.3807 448.7 63.6932C448.808 63.0227 449.023 62.4389 449.344 61.9418C449.668 61.4418 450.07 61.0554 450.55 60.7827C451.033 60.5071 451.564 60.3693 452.143 60.3693C452.746 60.3693 453.249 60.5142 453.652 60.804C454.058 61.0909 454.345 61.4943 454.513 62.0142C454.68 62.5312 454.709 63.1364 454.598 63.8295C454.49 64.4943 454.273 65.0753 453.946 65.5724C453.622 66.0668 453.22 66.4517 452.74 66.7273C452.263 67 451.734 67.1364 451.155 67.1364ZM451.172 66.233C451.632 66.233 452.031 66.1151 452.369 65.8793C452.71 65.6435 452.986 65.3324 453.196 64.946C453.409 64.5597 453.553 64.142 453.626 63.6932C453.695 63.267 453.692 62.8707 453.618 62.5043C453.544 62.1349 453.386 61.8381 453.145 61.6136C452.903 61.3864 452.564 61.2727 452.126 61.2727C451.666 61.2727 451.264 61.392 450.92 61.6307C450.58 61.8693 450.304 62.1832 450.094 62.5724C449.884 62.9616 449.743 63.3807 449.672 63.8295C449.604 64.2557 449.605 64.652 449.676 65.0185C449.75 65.3821 449.908 65.6761 450.149 65.9006C450.393 66.1222 450.734 66.233 451.172 66.233ZM455.695 61.392L455.849 60.4545H461.167L461.013 61.392H458.866L457.945 67H456.94L457.86 61.392H455.695ZM463.111 62.8239H464.986C465.753 62.8239 466.306 63.0185 466.644 63.4077C466.985 63.7969 467.108 64.2898 467.015 64.8864C466.946 65.2784 466.794 65.6349 466.559 65.956C466.323 66.2741 466.013 66.5284 465.63 66.7188C465.246 66.9062 464.799 67 464.287 67H461.543L462.634 60.4545H463.64L462.702 66.0625H464.441C464.841 66.0625 465.186 65.9588 465.476 65.7514C465.769 65.5412 465.941 65.2699 465.992 64.9375C466.051 64.5881 465.971 64.3054 465.749 64.0895C465.53 63.8707 465.225 63.7614 464.833 63.7614H462.958L463.111 62.8239ZM467.696 67L468.787 60.4545H469.793L468.702 67H467.696ZM475.503 58.2727H476.543L475.409 65.142H475.495L481.401 58.2727H482.424L480.975 67H479.918L481.06 60.1477H480.975L475.077 67H474.054L475.503 58.2727ZM494.442 58.2727L492.993 67H491.936L493.232 59.2102H488.834L487.538 67H486.482L487.93 58.2727H494.442ZM496.897 67.1534C496.483 67.1534 496.119 67.0753 495.806 66.919C495.494 66.7599 495.262 66.5312 495.112 66.233C494.961 65.9318 494.92 65.5682 494.988 65.142C495.054 64.767 495.18 64.4631 495.368 64.2301C495.555 63.9943 495.782 63.8097 496.049 63.6761C496.319 63.5398 496.609 63.4389 496.919 63.3736C497.231 63.3054 497.542 63.2528 497.852 63.2159C498.255 63.1648 498.583 63.125 498.836 63.0966C499.089 63.0682 499.279 63.0213 499.407 62.956C499.535 62.8906 499.613 62.7784 499.642 62.6193V62.5852C499.71 62.1676 499.654 61.8423 499.475 61.6094C499.297 61.3736 498.977 61.2557 498.517 61.2557C498.039 61.2557 497.64 61.3608 497.319 61.571C496.998 61.7812 496.761 62.0057 496.608 62.2443L495.721 61.9034C495.954 61.5057 496.233 61.196 496.556 60.9744C496.88 60.75 497.22 60.5937 497.575 60.5057C497.93 60.4148 498.272 60.3693 498.602 60.3693C498.812 60.3693 499.049 60.3949 499.314 60.446C499.578 60.4943 499.825 60.5952 500.055 60.7486C500.288 60.902 500.463 61.1335 500.579 61.4432C500.699 61.7528 500.716 62.1676 500.63 62.6875L499.914 67H498.909L499.062 66.1136H499.011C498.92 66.2557 498.781 66.4077 498.593 66.5696C498.409 66.7315 498.174 66.8693 497.89 66.983C497.609 67.0966 497.278 67.1534 496.897 67.1534ZM497.187 66.25C497.585 66.25 497.933 66.1719 498.231 66.0156C498.532 65.8594 498.774 65.6577 498.956 65.4105C499.14 65.1634 499.255 64.9034 499.301 64.6307L499.454 63.7102C499.403 63.7614 499.302 63.8082 499.152 63.8509C499.001 63.8906 498.831 63.9261 498.64 63.9574C498.453 63.9858 498.27 64.0114 498.091 64.0341C497.914 64.054 497.772 64.071 497.664 64.0852C497.397 64.1193 497.143 64.1747 496.902 64.2514C496.663 64.3253 496.461 64.4375 496.297 64.5881C496.135 64.7358 496.034 64.9375 495.994 65.1932C495.934 65.5426 496.018 65.8068 496.245 65.9858C496.473 66.1619 496.787 66.25 497.187 66.25ZM505.551 65.6364L508.705 60.4545H509.659L505.739 67H504.92L503.233 60.4545H504.17L505.551 65.6364ZM503.847 60.4545L502.756 67H501.75L502.841 60.4545H503.847ZM507.903 67L508.994 60.4545H510L508.909 67H507.903ZM514.688 67L515.625 61.375H513.886C513.491 61.375 513.166 61.4659 512.911 61.6477C512.658 61.8295 512.506 62.0795 512.455 62.3977C512.401 62.7102 512.46 62.956 512.634 63.1349C512.81 63.3139 513.074 63.4034 513.426 63.4034H515.54L515.386 64.3409H513.273C512.83 64.3409 512.46 64.2628 512.165 64.1065C511.869 63.9503 511.659 63.7273 511.534 63.4375C511.412 63.1449 511.384 62.7983 511.449 62.3977C511.517 61.9943 511.665 61.6477 511.892 61.358C512.122 61.0682 512.419 60.8452 512.783 60.6889C513.149 60.5327 513.568 60.4545 514.04 60.4545H516.733L515.642 67H514.688ZM510.324 67L512.727 63.7443H513.818L511.415 67H510.324ZM517.535 61.392L517.689 60.4545H523.007L522.853 61.392H520.706L519.785 67H518.779L519.7 61.392H517.535ZM528.377 63.267L528.224 64.2045H524.61L524.763 63.267H528.377ZM525.479 60.4545L524.388 67H523.383L524.474 60.4545H525.479ZM529.621 60.4545L528.531 67H527.525L528.616 60.4545H529.621ZM531.935 62.8239H533.81C534.577 62.8239 535.13 63.0185 535.468 63.4077C535.809 63.7969 535.933 64.2898 535.839 64.8864C535.771 65.2784 535.619 65.6349 535.383 65.956C535.147 66.2741 534.837 66.5284 534.454 66.7188C534.07 66.9062 533.623 67 533.112 67H530.367L531.458 60.4545H532.464L531.526 66.0625H533.265C533.665 66.0625 534.011 65.9588 534.3 65.7514C534.593 65.5412 534.765 65.2699 534.816 64.9375C534.876 64.5881 534.795 64.3054 534.573 64.0895C534.354 63.8707 534.049 63.7614 533.657 63.7614H531.782L531.935 62.8239ZM536.521 67L537.612 60.4545H538.617L537.526 67H536.521ZM542.094 67.1364C541.467 67.1364 540.948 66.9972 540.539 66.7188C540.13 66.4375 539.844 66.0455 539.683 65.5426C539.521 65.0369 539.495 64.4489 539.606 63.7784C539.717 63.108 539.937 62.517 540.266 62.0057C540.596 61.4915 541.006 61.0909 541.498 60.804C541.989 60.5142 542.529 60.3693 543.117 60.3693C543.458 60.3693 543.786 60.4261 544.102 60.5398C544.417 60.6534 544.69 60.8381 544.92 61.0938C545.15 61.3466 545.31 61.6818 545.401 62.0994C545.492 62.517 545.487 63.0312 545.384 63.642L545.316 64.0682H540.271L540.407 63.1989H544.43C544.495 62.8295 544.478 62.5 544.379 62.2102C544.282 61.9205 544.113 61.6918 543.871 61.5241C543.633 61.3565 543.33 61.2727 542.964 61.2727C542.586 61.2727 542.234 61.375 541.907 61.5795C541.58 61.7812 541.308 62.0369 541.089 62.3466C540.87 62.6534 540.734 62.9659 540.68 63.2841L540.56 64.0341C540.475 64.5767 540.488 65.0085 540.599 65.3295C540.712 65.6506 540.91 65.8821 541.191 66.0241C541.472 66.1634 541.825 66.233 542.248 66.233C542.518 66.233 542.766 66.196 542.994 66.1222C543.221 66.0455 543.424 65.9318 543.603 65.7812C543.782 65.6278 543.933 65.4375 544.055 65.2102L544.975 65.483C544.819 65.8125 544.599 66.1023 544.315 66.3523C544.033 66.5994 543.704 66.7926 543.326 66.9318C542.951 67.0682 542.54 67.1364 542.094 67.1364ZM198.637 70.2727L197.188 79H196.131L197.427 71.2102H193.029L191.734 79H190.677L192.126 70.2727H198.637ZM201.885 79.1364C201.283 79.1364 200.779 78.9929 200.373 78.706C199.966 78.419 199.679 78.017 199.512 77.5C199.347 76.983 199.32 76.3807 199.431 75.6932C199.539 75.0227 199.753 74.4389 200.074 73.9418C200.398 73.4418 200.8 73.0554 201.28 72.7827C201.763 72.5071 202.294 72.3693 202.874 72.3693C203.476 72.3693 203.979 72.5142 204.382 72.804C204.789 73.0909 205.076 73.4943 205.243 74.0142C205.411 74.5312 205.439 75.1364 205.328 75.8295C205.221 76.4943 205.003 77.0753 204.676 77.5724C204.353 78.0668 203.951 78.4517 203.471 78.7273C202.993 79 202.465 79.1364 201.885 79.1364ZM201.902 78.233C202.363 78.233 202.762 78.1151 203.1 77.8793C203.441 77.6435 203.716 77.3324 203.926 76.946C204.14 76.5597 204.283 76.142 204.357 75.6932C204.425 75.267 204.422 74.8707 204.348 74.5043C204.275 74.1349 204.117 73.8381 203.875 73.6136C203.634 73.3864 203.294 73.2727 202.857 73.2727C202.397 73.2727 201.995 73.392 201.651 73.6307C201.31 73.8693 201.034 74.1832 200.824 74.5724C200.614 74.9616 200.473 75.3807 200.402 75.8295C200.334 76.2557 200.336 76.652 200.407 77.0185C200.48 77.3821 200.638 77.6761 200.88 77.9006C201.124 78.1222 201.465 78.233 201.902 78.233ZM205.338 80.875L205.815 78.0625H206.361C206.514 77.9233 206.652 77.7727 206.774 77.6108C206.899 77.4489 207.016 77.2571 207.124 77.0355C207.232 76.8111 207.338 76.5384 207.443 76.2173C207.548 75.8935 207.659 75.5028 207.776 75.0455L208.423 72.4545H212.582L211.662 78.0625H212.668L212.19 80.875H211.185L211.491 79H206.651L206.344 80.875H205.338ZM207.503 78.0625H210.656L211.423 73.392H209.207L208.764 75.0455C208.58 75.7301 208.392 76.3281 208.202 76.8395C208.014 77.3509 207.781 77.7585 207.503 78.0625ZM215.753 79.1534C215.338 79.1534 214.974 79.0753 214.662 78.919C214.349 78.7599 214.118 78.5312 213.967 78.233C213.817 77.9318 213.776 77.5682 213.844 77.142C213.909 76.767 214.036 76.4631 214.223 76.2301C214.411 75.9943 214.638 75.8097 214.905 75.6761C215.175 75.5398 215.464 75.4389 215.774 75.3736C216.087 75.3054 216.398 75.2528 216.707 75.2159C217.111 75.1648 217.439 75.125 217.692 75.0966C217.945 75.0682 218.135 75.0213 218.263 74.956C218.391 74.8906 218.469 74.7784 218.497 74.6193V74.5852C218.565 74.1676 218.51 73.8423 218.331 73.6094C218.152 73.3736 217.832 73.2557 217.372 73.2557C216.895 73.2557 216.496 73.3608 216.175 73.571C215.854 73.7812 215.616 74.0057 215.463 74.2443L214.577 73.9034C214.81 73.5057 215.088 73.196 215.412 72.9744C215.736 72.75 216.075 72.5937 216.43 72.5057C216.786 72.4148 217.128 72.3693 217.457 72.3693C217.668 72.3693 217.905 72.3949 218.169 72.446C218.433 72.4943 218.68 72.5952 218.911 72.7486C219.143 72.902 219.318 73.1335 219.435 73.4432C219.554 73.7528 219.571 74.1676 219.486 74.6875L218.77 79H217.764L217.918 78.1136H217.866C217.776 78.2557 217.636 78.4077 217.449 78.5696C217.264 78.7315 217.03 78.8693 216.746 78.983C216.464 79.0966 216.134 79.1534 215.753 79.1534ZM216.043 78.25C216.44 78.25 216.788 78.1719 217.087 78.0156C217.388 77.8594 217.629 77.6577 217.811 77.4105C217.996 77.1634 218.111 76.9034 218.156 76.6307L218.31 75.7102C218.259 75.7614 218.158 75.8082 218.007 75.8509C217.857 75.8906 217.686 75.9261 217.496 75.9574C217.308 75.9858 217.125 76.0114 216.946 76.0341C216.77 76.054 216.628 76.071 216.52 76.0852C216.253 76.1193 215.999 76.1747 215.757 76.2514C215.518 76.3253 215.317 76.4375 215.152 76.5881C214.99 76.7358 214.889 76.9375 214.849 77.1932C214.79 77.5426 214.874 77.8068 215.101 77.9858C215.328 78.1619 215.642 78.25 216.043 78.25ZM220.196 81.4545L221.705 72.4545H222.676L222.506 73.4943H222.625C222.716 73.3807 222.841 73.2358 223 73.0597C223.162 72.8807 223.38 72.7216 223.652 72.5824C223.928 72.4403 224.279 72.3693 224.705 72.3693C225.256 72.3693 225.718 72.5071 226.09 72.7827C226.462 73.0582 226.725 73.4489 226.878 73.9545C227.032 74.4602 227.051 75.0568 226.938 75.7443C226.824 76.4375 226.607 77.0384 226.286 77.5469C225.965 78.0526 225.573 78.4446 225.11 78.723C224.647 78.9986 224.142 79.1364 223.597 79.1364C223.176 79.1364 222.851 79.0668 222.621 78.9276C222.391 78.7855 222.223 78.625 222.118 78.446C222.013 78.2642 221.932 78.1136 221.875 77.9943H221.79L221.211 81.4545H220.196ZM222.148 75.7273C222.069 76.2216 222.069 76.6577 222.148 77.0355C222.23 77.4105 222.394 77.7045 222.638 77.9176C222.885 78.1278 223.211 78.233 223.614 78.233C224.034 78.233 224.402 78.1222 224.718 77.9006C225.036 77.6761 225.297 77.375 225.502 76.9972C225.709 76.6165 225.853 76.1932 225.932 75.7273C226.006 75.267 226.003 74.8523 225.924 74.483C225.844 74.1108 225.682 73.8168 225.438 73.6009C225.194 73.3821 224.858 73.2727 224.432 73.2727C224.023 73.2727 223.661 73.3764 223.346 73.5838C223.033 73.7884 222.775 74.0753 222.57 74.4446C222.368 74.8111 222.228 75.2386 222.148 75.7273ZM227.93 79L229.021 72.4545H230.026L229.549 75.3011H230.214L233.043 72.4545H234.339L231.168 75.608L233.282 79H231.987L230.299 76.2386H229.396L228.935 79H227.93ZM235.636 77.517L239.625 72.4545H240.784L239.693 79H238.688L239.523 73.9375L235.551 79H234.375L235.466 72.4545H236.472L235.636 77.517ZM242.387 79.0682C242.172 79.0682 241.991 78.9943 241.846 78.8466C241.701 78.696 241.626 78.5142 241.62 78.3011C241.618 78.0881 241.693 77.9105 241.846 77.7685C242 77.6236 242.18 77.5511 242.387 77.5511C242.598 77.5511 242.779 77.625 242.933 77.7727C243.086 77.9205 243.16 78.0966 243.154 78.3011C243.152 78.4432 243.115 78.5724 243.044 78.6889C242.975 78.8054 242.883 78.8977 242.767 78.9659C242.653 79.0341 242.527 79.0682 242.387 79.0682ZM248.351 79L249.8 70.2727H250.857L250.209 74.1591H254.863L255.51 70.2727H256.567L255.118 79H254.061L254.709 75.0966H250.056L249.408 79H248.351ZM259.007 79.1534C258.592 79.1534 258.228 79.0753 257.916 78.919C257.603 78.7599 257.372 78.5312 257.221 78.233C257.071 77.9318 257.029 77.5682 257.098 77.142C257.163 76.767 257.289 76.4631 257.477 76.2301C257.664 75.9943 257.892 75.8097 258.159 75.6761C258.429 75.5398 258.718 75.4389 259.028 75.3736C259.341 75.3054 259.652 75.2528 259.961 75.2159C260.365 75.1648 260.693 75.125 260.946 75.0966C261.199 75.0682 261.389 75.0213 261.517 74.956C261.645 74.8906 261.723 74.7784 261.751 74.6193V74.5852C261.819 74.1676 261.764 73.8423 261.585 73.6094C261.406 73.3736 261.086 73.2557 260.626 73.2557C260.149 73.2557 259.75 73.3608 259.429 73.571C259.108 73.7812 258.87 74.0057 258.717 74.2443L257.831 73.9034C258.064 73.5057 258.342 73.196 258.666 72.9744C258.99 72.75 259.329 72.5937 259.684 72.5057C260.039 72.4148 260.382 72.3693 260.711 72.3693C260.922 72.3693 261.159 72.3949 261.423 72.446C261.687 72.4943 261.934 72.5952 262.164 72.7486C262.397 72.902 262.572 73.1335 262.689 73.4432C262.808 73.7528 262.825 74.1676 262.74 74.6875L262.024 79H261.018L261.172 78.1136H261.12C261.029 78.2557 260.89 78.4077 260.703 78.5696C260.518 78.7315 260.284 78.8693 260 78.983C259.718 79.0966 259.387 79.1534 259.007 79.1534ZM259.297 78.25C259.694 78.25 260.042 78.1719 260.341 78.0156C260.642 77.8594 260.883 77.6577 261.065 77.4105C261.25 77.1634 261.365 76.9034 261.41 76.6307L261.564 75.7102C261.512 75.7614 261.412 75.8082 261.261 75.8509C261.11 75.8906 260.94 75.9261 260.75 75.9574C260.562 75.9858 260.379 76.0114 260.2 76.0341C260.024 76.054 259.882 76.071 259.774 76.0852C259.507 76.1193 259.252 76.1747 259.011 76.2514C258.772 76.3253 258.571 76.4375 258.406 76.5881C258.244 76.7358 258.143 76.9375 258.103 77.1932C258.044 77.5426 258.127 77.8068 258.355 77.9858C258.582 78.1619 258.896 78.25 259.297 78.25ZM265.121 77.517L269.109 72.4545H270.268L269.178 79H268.172L269.007 73.9375L265.036 79H263.859L264.95 72.4545H265.956L265.121 77.517ZM268.794 70.2727H269.732C269.655 70.733 269.432 71.1094 269.062 71.402C268.696 71.6946 268.24 71.8409 267.695 71.8409C267.158 71.8409 266.756 71.6946 266.489 71.402C266.222 71.1094 266.126 70.733 266.203 70.2727H267.141C267.104 70.4943 267.134 70.6889 267.23 70.8565C267.327 71.0241 267.524 71.108 267.822 71.108C268.121 71.108 268.348 71.0241 268.504 70.8565C268.661 70.6889 268.757 70.4943 268.794 70.2727ZM270.014 80.875L270.491 78.0625H271.037C271.19 77.9233 271.328 77.7727 271.45 77.6108C271.575 77.4489 271.691 77.2571 271.799 77.0355C271.907 76.8111 272.014 76.5384 272.119 76.2173C272.224 75.8935 272.335 75.5028 272.451 75.0455L273.099 72.4545H277.258L276.338 78.0625H277.343L276.866 80.875H275.86L276.167 79H271.326L271.02 80.875H270.014ZM272.179 78.0625H275.332L276.099 73.392H273.883L273.44 75.0455C273.255 75.7301 273.068 76.3281 272.877 76.8395C272.69 77.3509 272.457 77.7585 272.179 78.0625ZM279.781 77.517L283.77 72.4545H284.929L283.838 79H282.832L283.667 73.9375L279.696 79H278.52L279.61 72.4545H280.616L279.781 77.517ZM285.727 73.392L285.88 72.4545H291.198L291.045 73.392H288.897L287.977 79H286.971L287.891 73.392H285.727ZM293.962 79.1364C293.334 79.1364 292.815 78.9972 292.406 78.7188C291.997 78.4375 291.712 78.0455 291.55 77.5426C291.388 77.0369 291.362 76.4489 291.473 75.7784C291.584 75.108 291.804 74.517 292.134 74.0057C292.463 73.4915 292.874 73.0909 293.365 72.804C293.857 72.5142 294.396 72.3693 294.984 72.3693C295.325 72.3693 295.653 72.4261 295.969 72.5398C296.284 72.6534 296.557 72.8381 296.787 73.0938C297.017 73.3466 297.178 73.6818 297.268 74.0994C297.359 74.517 297.354 75.0312 297.251 75.642L297.183 76.0682H292.138L292.274 75.1989H296.297C296.362 74.8295 296.345 74.5 296.246 74.2102C296.149 73.9205 295.98 73.6918 295.739 73.5241C295.5 73.3565 295.197 73.2727 294.831 73.2727C294.453 73.2727 294.101 73.375 293.774 73.5795C293.447 73.7812 293.175 74.0369 292.956 74.3466C292.737 74.6534 292.601 74.9659 292.547 75.2841L292.428 76.0341C292.342 76.5767 292.355 77.0085 292.466 77.3295C292.58 77.6506 292.777 77.8821 293.058 78.0241C293.339 78.1634 293.692 78.233 294.115 78.233C294.385 78.233 294.634 78.196 294.861 78.1222C295.088 78.0455 295.291 77.9318 295.47 77.7812C295.649 77.6278 295.8 77.4375 295.922 77.2102L296.842 77.483C296.686 77.8125 296.466 78.1023 296.182 78.3523C295.901 78.5994 295.571 78.7926 295.193 78.9318C294.818 79.0682 294.408 79.1364 293.962 79.1364ZM303.202 70.2727H304.242L303.109 77.142H303.194L309.1 70.2727H310.123L308.674 79H307.617L308.759 72.1477H308.674L302.776 79H301.754L303.202 70.2727ZM309.647 80.875L310.124 78.0625H310.669C310.823 77.9233 310.961 77.7727 311.083 77.6108C311.208 77.4489 311.324 77.2571 311.432 77.0355C311.54 76.8111 311.647 76.5384 311.752 76.2173C311.857 75.8935 311.968 75.5028 312.084 75.0455L312.732 72.4545H316.891L315.971 78.0625H316.976L316.499 80.875H315.493L315.8 79H310.959L310.652 80.875H309.647ZM311.811 78.0625H314.965L315.732 73.392H313.516L313.073 75.0455C312.888 75.7301 312.701 76.3281 312.51 76.8395C312.323 77.3509 312.09 77.7585 311.811 78.0625ZM320.88 79.1364C320.252 79.1364 319.733 78.9972 319.324 78.7188C318.915 78.4375 318.63 78.0455 318.468 77.5426C318.306 77.0369 318.28 76.4489 318.391 75.7784C318.502 75.108 318.722 74.517 319.051 74.0057C319.381 73.4915 319.792 73.0909 320.283 72.804C320.775 72.5142 321.314 72.3693 321.902 72.3693C322.243 72.3693 322.571 72.4261 322.887 72.5398C323.202 72.6534 323.475 72.8381 323.705 73.0938C323.935 73.3466 324.096 73.6818 324.186 74.0994C324.277 74.517 324.272 75.0312 324.169 75.642L324.101 76.0682H319.056L319.192 75.1989H323.215C323.28 74.8295 323.263 74.5 323.164 74.2102C323.067 73.9205 322.898 73.6918 322.657 73.5241C322.418 73.3565 322.115 73.2727 321.749 73.2727C321.371 73.2727 321.019 73.375 320.692 73.5795C320.365 73.7812 320.093 74.0369 319.874 74.3466C319.655 74.6534 319.519 74.9659 319.465 75.2841L319.346 76.0341C319.26 76.5767 319.273 77.0085 319.384 77.3295C319.498 77.6506 319.695 77.8821 319.976 78.0241C320.257 78.1634 320.61 78.233 321.033 78.233C321.303 78.233 321.551 78.196 321.779 78.1222C322.006 78.0455 322.209 77.9318 322.388 77.7812C322.567 77.6278 322.718 77.4375 322.84 77.2102L323.76 77.483C323.604 77.8125 323.384 78.1023 323.1 78.3523C322.819 78.5994 322.489 78.7926 322.111 78.9318C321.736 79.0682 321.326 79.1364 320.88 79.1364ZM327.069 79.1534C326.654 79.1534 326.291 79.0753 325.978 78.919C325.666 78.7599 325.434 78.5312 325.284 78.233C325.133 77.9318 325.092 77.5682 325.16 77.142C325.225 76.767 325.352 76.4631 325.539 76.2301C325.727 75.9943 325.954 75.8097 326.221 75.6761C326.491 75.5398 326.781 75.4389 327.091 75.3736C327.403 75.3054 327.714 75.2528 328.024 75.2159C328.427 75.1648 328.755 75.125 329.008 75.0966C329.261 75.0682 329.451 75.0213 329.579 74.956C329.707 74.8906 329.785 74.7784 329.814 74.6193V74.5852C329.882 74.1676 329.826 73.8423 329.647 73.6094C329.468 73.3736 329.149 73.2557 328.689 73.2557C328.211 73.2557 327.812 73.3608 327.491 73.571C327.17 73.7812 326.933 74.0057 326.779 74.2443L325.893 73.9034C326.126 73.5057 326.404 73.196 326.728 72.9744C327.052 72.75 327.392 72.5937 327.747 72.5057C328.102 72.4148 328.444 72.3693 328.774 72.3693C328.984 72.3693 329.221 72.3949 329.485 72.446C329.75 72.4943 329.997 72.5952 330.227 72.7486C330.46 72.902 330.635 73.1335 330.751 73.4432C330.87 73.7528 330.887 74.1676 330.802 74.6875L330.086 79H329.081L329.234 78.1136H329.183C329.092 78.2557 328.953 78.4077 328.765 78.5696C328.581 78.7315 328.346 78.8693 328.062 78.983C327.781 79.0966 327.45 79.1534 327.069 79.1534ZM327.359 78.25C327.757 78.25 328.105 78.1719 328.403 78.0156C328.704 77.8594 328.946 77.6577 329.127 77.4105C329.312 77.1634 329.427 76.9034 329.473 76.6307L329.626 75.7102C329.575 75.7614 329.474 75.8082 329.324 75.8509C329.173 75.8906 329.002 75.9261 328.812 75.9574C328.625 75.9858 328.441 76.0114 328.262 76.0341C328.086 76.054 327.944 76.071 327.836 76.0852C327.569 76.1193 327.315 76.1747 327.074 76.2514C326.835 76.3253 326.633 76.4375 326.468 76.5881C326.306 76.7358 326.206 76.9375 326.166 77.1932C326.106 77.5426 326.19 77.8068 326.417 77.9858C326.645 78.1619 326.958 78.25 327.359 78.25ZM331.342 79L331.496 78.0625H331.734C331.93 78.0625 332.099 78.0241 332.241 77.9474C332.386 77.8679 332.516 77.7301 332.629 77.5341C332.746 77.3352 332.855 77.0597 332.957 76.7074C333.063 76.3523 333.172 75.9006 333.286 75.3523L333.882 72.4545H338.246L337.155 79H336.149L337.087 73.392H334.683L334.189 75.7273C334.078 76.2642 333.952 76.7372 333.81 77.1463C333.67 77.5526 333.504 77.8935 333.311 78.169C333.121 78.4446 332.892 78.652 332.625 78.7912C332.361 78.9304 332.047 79 331.683 79H331.342ZM340.568 74.8239H342.443C343.21 74.8239 343.763 75.0185 344.101 75.4077C344.442 75.7969 344.565 76.2898 344.472 76.8864C344.403 77.2784 344.251 77.6349 344.016 77.956C343.78 78.2741 343.47 78.5284 343.087 78.7188C342.703 78.9062 342.256 79 341.744 79H339L340.091 72.4545H341.097L340.159 78.0625H341.898C342.298 78.0625 342.643 77.9588 342.933 77.7514C343.226 77.5412 343.398 77.2699 343.449 76.9375C343.509 76.5881 343.428 76.3054 343.206 76.0895C342.987 75.8707 342.682 75.7614 342.29 75.7614H340.415L340.568 74.8239ZM350.639 75.267L350.485 76.2045H346.872L347.025 75.267H350.639ZM347.741 72.4545L346.65 79H345.645L346.735 72.4545H347.741ZM351.883 72.4545L350.792 79H349.787L350.877 72.4545H351.883ZM354.197 74.8239H356.072C356.839 74.8239 357.392 75.0185 357.73 75.4077C358.071 75.7969 358.194 76.2898 358.1 76.8864C358.032 77.2784 357.88 77.6349 357.645 77.956C357.409 78.2741 357.099 78.5284 356.716 78.7188C356.332 78.9062 355.885 79 355.373 79H352.629L353.72 72.4545H354.725L353.788 78.0625H355.527C355.927 78.0625 356.272 77.9588 356.562 77.7514C356.855 77.5412 357.027 77.2699 357.078 76.9375C357.137 76.5881 357.056 76.3054 356.835 76.0895C356.616 75.8707 356.311 75.7614 355.919 75.7614H354.044L354.197 74.8239ZM358.782 79L359.873 72.4545H360.879L359.788 79H358.782ZM362.89 77.517L366.879 72.4545H368.038L366.947 79H365.941L366.777 73.9375L362.805 79H361.629L362.72 72.4545H363.725L362.89 77.517ZM366.564 70.2727H367.501C367.424 70.733 367.201 71.1094 366.832 71.402C366.466 71.6946 366.01 71.8409 365.464 71.8409C364.927 71.8409 364.525 71.6946 364.258 71.402C363.991 71.1094 363.896 70.733 363.973 70.2727H364.91C364.873 70.4943 364.903 70.6889 365 70.8565C365.096 71.0241 365.294 71.108 365.592 71.108C365.89 71.108 366.118 71.0241 366.274 70.8565C366.43 70.6889 366.527 70.4943 366.564 70.2727ZM380.312 73H379.272C379.261 72.696 379.198 72.429 379.085 72.1989C378.971 71.9688 378.817 71.7756 378.624 71.6193C378.434 71.4602 378.215 71.3409 377.968 71.2614C377.721 71.1818 377.457 71.142 377.175 71.142C376.636 71.142 376.124 71.2798 375.641 71.5554C375.158 71.8281 374.745 72.2301 374.401 72.7614C374.058 73.2898 373.823 73.9375 373.698 74.7045C373.573 75.4489 373.592 76.0753 373.754 76.5838C373.915 77.0923 374.184 77.4773 374.559 77.7386C374.934 78 375.38 78.1307 375.897 78.1307C376.195 78.1307 376.488 78.0909 376.775 78.0114C377.065 77.9318 377.335 77.8139 377.585 77.6577C377.837 77.4986 378.062 77.304 378.258 77.0739C378.457 76.8409 378.613 76.5739 378.727 76.2727H379.783C379.627 76.7187 379.415 77.1179 379.148 77.4702C378.884 77.8224 378.579 78.1222 378.232 78.3693C377.886 78.6136 377.512 78.7997 377.112 78.9276C376.711 79.0554 376.295 79.1193 375.863 79.1193C375.107 79.1193 374.464 78.9347 373.933 78.5653C373.404 78.1932 373.026 77.6676 372.799 76.9886C372.575 76.3068 372.539 75.5 372.692 74.5682C372.846 73.6591 373.14 72.875 373.575 72.2159C374.009 71.554 374.542 71.0455 375.173 70.6903C375.803 70.3324 376.488 70.1534 377.227 70.1534C377.67 70.1534 378.077 70.2173 378.45 70.3452C378.822 70.473 379.146 70.6605 379.421 70.9077C379.697 71.152 379.911 71.4503 380.065 71.8026C380.221 72.152 380.303 72.5511 380.312 73ZM381.142 81.4545C380.971 81.4545 380.821 81.4403 380.69 81.4119C380.562 81.3864 380.474 81.3608 380.426 81.3352L380.835 80.4489C381.068 80.5114 381.275 80.5298 381.457 80.5043C381.642 80.4815 381.816 80.392 381.981 80.2358C382.149 80.0824 382.324 79.8409 382.505 79.5114L382.787 79L381.474 72.4545H382.522L383.46 77.6875H383.528L386.204 72.4545H387.338L383.324 79.946C383.136 80.2955 382.93 80.581 382.706 80.8026C382.481 81.0241 382.238 81.1875 381.977 81.2926C381.716 81.4006 381.437 81.4545 381.142 81.4545ZM387.574 79L388.665 72.4545H391.341C392.04 72.4545 392.571 72.6151 392.935 72.9361C393.299 73.2543 393.438 73.6733 393.353 74.1932C393.284 74.5938 393.114 74.902 392.841 75.1179C392.569 75.3338 392.245 75.4801 391.87 75.5568C392.103 75.5909 392.321 75.6761 392.526 75.8125C392.733 75.9489 392.891 76.1364 392.999 76.375C393.11 76.6136 393.137 76.9034 393.08 77.2443C393.023 77.5795 392.887 77.8793 392.671 78.1435C392.458 78.4077 392.179 78.6165 391.836 78.7699C391.495 78.9233 391.103 79 390.659 79H387.574ZM388.682 78.0795H390.813C391.162 78.0795 391.449 77.9972 391.674 77.8324C391.898 77.6648 392.032 77.4403 392.074 77.1591C392.134 76.8182 392.08 76.5511 391.912 76.358C391.748 76.1648 391.495 76.0682 391.154 76.0682H389.023L388.682 78.0795ZM389.159 75.1989H390.881C391.148 75.1989 391.385 75.1619 391.593 75.0881C391.8 75.0114 391.968 74.9034 392.096 74.7642C392.223 74.6222 392.301 74.4545 392.33 74.2614C392.381 73.9886 392.303 73.7727 392.096 73.6136C391.891 73.4545 391.588 73.375 391.188 73.375H389.466L389.159 75.1989ZM397.04 79.1364C396.412 79.1364 395.893 78.9972 395.484 78.7188C395.075 78.4375 394.79 78.0455 394.628 77.5426C394.466 77.0369 394.44 76.4489 394.551 75.7784C394.662 75.108 394.882 74.517 395.212 74.0057C395.541 73.4915 395.952 73.0909 396.443 72.804C396.935 72.5142 397.474 72.3693 398.062 72.3693C398.403 72.3693 398.732 72.4261 399.047 72.5398C399.362 72.6534 399.635 72.8381 399.865 73.0938C400.095 73.3466 400.256 73.6818 400.347 74.0994C400.438 74.517 400.432 75.0312 400.33 75.642L400.261 76.0682H395.216L395.352 75.1989H399.375C399.44 74.8295 399.423 74.5 399.324 74.2102C399.227 73.9205 399.058 73.6918 398.817 73.5241C398.578 73.3565 398.276 73.2727 397.909 73.2727C397.531 73.2727 397.179 73.375 396.852 73.5795C396.526 73.7812 396.253 74.0369 396.034 74.3466C395.815 74.6534 395.679 74.9659 395.625 75.2841L395.506 76.0341C395.42 76.5767 395.433 77.0085 395.544 77.3295C395.658 77.6506 395.855 77.8821 396.136 78.0241C396.418 78.1634 396.77 78.233 397.193 78.233C397.463 78.233 397.712 78.196 397.939 78.1222C398.166 78.0455 398.369 77.9318 398.548 77.7812C398.727 77.6278 398.878 77.4375 399 77.2102L399.92 77.483C399.764 77.8125 399.544 78.1023 399.26 78.3523C398.979 78.5994 398.649 78.7926 398.271 78.9318C397.896 79.0682 397.486 79.1364 397.04 79.1364ZM406.315 75.267L406.161 76.2045H402.548L402.701 75.267H406.315ZM403.417 72.4545L402.326 79H401.32L402.411 72.4545H403.417ZM407.559 72.4545L406.468 79H405.462L406.553 72.4545H407.559ZM409.566 77.517L413.555 72.4545H414.714L413.623 79H412.617L413.452 73.9375L409.481 79H408.305L409.396 72.4545H410.401L409.566 77.517ZM415.056 81.4545L416.564 72.4545H417.536L417.365 73.4943H417.485C417.576 73.3807 417.701 73.2358 417.86 73.0597C418.022 72.8807 418.239 72.7216 418.512 72.5824C418.787 72.4403 419.138 72.3693 419.564 72.3693C420.115 72.3693 420.577 72.5071 420.949 72.7827C421.321 73.0582 421.584 73.4489 421.738 73.9545C421.891 74.4602 421.911 75.0568 421.797 75.7443C421.684 76.4375 421.466 77.0384 421.145 77.5469C420.824 78.0526 420.432 78.4446 419.969 78.723C419.506 78.9986 419.002 79.1364 418.456 79.1364C418.036 79.1364 417.711 79.0668 417.48 78.9276C417.25 78.7855 417.083 78.625 416.978 78.446C416.873 78.2642 416.792 78.1136 416.735 77.9943H416.65L416.07 81.4545H415.056ZM417.007 75.7273C416.928 76.2216 416.928 76.6577 417.007 77.0355C417.09 77.4105 417.253 77.7045 417.498 77.9176C417.745 78.1278 418.07 78.233 418.473 78.233C418.894 78.233 419.262 78.1222 419.577 77.9006C419.895 77.6761 420.157 77.375 420.361 76.9972C420.569 76.6165 420.712 76.1932 420.792 75.7273C420.865 75.267 420.863 74.8523 420.783 74.483C420.703 74.1108 420.542 73.8168 420.297 73.6009C420.053 73.3821 419.718 73.2727 419.292 73.2727C418.882 73.2727 418.52 73.3764 418.205 73.5838C417.892 73.7884 417.634 74.0753 417.429 74.4446C417.228 74.8111 417.087 75.2386 417.007 75.7273ZM425.21 81.1136L425.704 78.0625H426.266C426.491 77.8864 426.715 77.6378 426.94 77.3168C427.167 76.9929 427.386 76.5611 427.596 76.0213C427.809 75.4787 428.002 74.7898 428.175 73.9545L428.977 70.2727H434.158L432.863 78.0625H433.869L433.374 81.0966H432.369L432.71 79H426.556L426.215 81.1136H425.21ZM427.528 78.0625H431.857L432.999 71.2102H429.778L429.181 73.9545C429.048 74.5909 428.894 75.1676 428.721 75.6847C428.55 76.1989 428.364 76.6548 428.163 77.0526C427.964 77.4474 427.752 77.7841 427.528 78.0625ZM434.596 79L434.75 78.0625H434.988C435.184 78.0625 435.353 78.0241 435.495 77.9474C435.64 77.8679 435.77 77.7301 435.883 77.5341C436 77.3352 436.109 77.0597 436.211 76.7074C436.316 76.3523 436.426 75.9006 436.539 75.3523L437.136 72.4545H441.5L440.409 79H439.403L440.341 73.392H437.937L437.443 75.7273C437.332 76.2642 437.206 76.7372 437.064 77.1463C436.924 77.5526 436.758 77.8935 436.565 78.169C436.375 78.4446 436.146 78.652 435.879 78.7912C435.615 78.9304 435.301 79 434.937 79H434.596ZM446.191 79L447.129 73.375H445.39C444.995 73.375 444.67 73.4659 444.414 73.6477C444.162 73.8295 444.01 74.0795 443.958 74.3977C443.904 74.7102 443.964 74.956 444.137 75.1349C444.314 75.3139 444.578 75.4034 444.93 75.4034H447.044L446.89 76.3409H444.777C444.333 76.3409 443.964 76.2628 443.669 76.1065C443.373 75.9503 443.163 75.7273 443.038 75.4375C442.916 75.1449 442.887 74.7983 442.953 74.3977C443.021 73.9943 443.169 73.6477 443.396 73.358C443.626 73.0682 443.923 72.8452 444.287 72.6889C444.653 72.5327 445.072 72.4545 445.544 72.4545H448.237L447.146 79H446.191ZM441.828 79L444.231 75.7443H445.322L442.919 79H441.828ZM451.754 79L451.924 78.0284H452.18C452.543 78.0284 452.844 77.9119 453.083 77.679C453.325 77.446 453.532 77.0696 453.705 76.5497C453.881 76.0298 454.055 75.3409 454.225 74.483L455.077 70.2727H460.396L458.947 79H457.89L459.185 71.2102H455.93L455.214 74.6875C455.026 75.6023 454.812 76.3807 454.57 77.0227C454.332 77.6648 454.016 78.1548 453.624 78.4929C453.235 78.831 452.719 79 452.077 79H451.754ZM464.672 75.3182L464.518 76.2557H461.058L461.212 75.3182H464.672ZM462.541 72.4545L461.45 79H460.445L461.536 72.4545H462.541ZM466.053 79.1364C465.462 79.1364 464.966 78.9957 464.565 78.7145C464.168 78.4332 463.886 78.0398 463.722 77.5341C463.56 77.0284 463.536 76.4375 463.649 75.7614C463.763 75.0795 463.986 74.4844 464.318 73.9759C464.651 73.4673 465.063 73.0724 465.554 72.7912C466.045 72.5099 466.587 72.3693 467.178 72.3693C467.768 72.3693 468.263 72.5099 468.661 72.7912C469.061 73.0724 469.342 73.4673 469.504 73.9759C469.669 74.4844 469.695 75.0795 469.581 75.7614C469.467 76.4375 469.244 77.0284 468.912 77.5341C468.58 78.0398 468.168 78.4332 467.676 78.7145C467.185 78.9957 466.643 79.1364 466.053 79.1364ZM466.206 78.233C466.655 78.233 467.043 78.1179 467.369 77.8878C467.696 77.6577 467.96 77.3551 468.162 76.9801C468.364 76.6051 468.501 76.1989 468.575 75.7614C468.643 75.3239 468.639 74.9162 468.562 74.5384C468.486 74.1605 468.322 73.8551 468.072 73.6222C467.822 73.3892 467.473 73.2727 467.024 73.2727C466.575 73.2727 466.186 73.3892 465.857 73.6222C465.527 73.8551 465.261 74.1605 465.06 74.5384C464.858 74.9162 464.723 75.3239 464.655 75.7614C464.581 76.1989 464.582 76.6051 464.659 76.9801C464.739 77.3551 464.903 77.6577 465.153 77.8878C465.406 78.1179 465.757 78.233 466.206 78.233ZM477.03 70L477.439 70.6136C477.212 70.8068 476.96 70.9418 476.685 71.0185C476.412 71.0952 476.109 71.142 475.777 71.1591C475.447 71.1761 475.081 71.1932 474.678 71.2102C474.217 71.2273 473.82 71.3381 473.484 71.5426C473.152 71.7472 472.874 72.0426 472.649 72.429C472.425 72.8153 472.243 73.2898 472.104 73.8523H472.189C472.479 73.4432 472.835 73.142 473.259 72.9489C473.682 72.7557 474.121 72.6591 474.575 72.6591C475.084 72.6591 475.521 72.7784 475.888 73.017C476.257 73.2557 476.523 73.6094 476.685 74.0781C476.847 74.5469 476.871 75.125 476.757 75.8125C476.643 76.4972 476.425 77.0881 476.101 77.5852C475.777 78.0824 475.374 78.4659 474.891 78.7358C474.411 79.0028 473.879 79.1364 473.297 79.1364C472.712 79.1364 472.222 78.9986 471.827 78.723C471.432 78.4446 471.156 78.0327 471 77.4872C470.844 76.9389 470.831 76.2614 470.962 75.4545L471.081 74.7557C471.325 73.2983 471.757 72.1932 472.376 71.4403C472.999 70.6875 473.811 70.2983 474.814 70.2727C475.166 70.2614 475.479 70.2585 475.751 70.2642C476.027 70.2699 476.268 70.2571 476.476 70.2259C476.686 70.1946 476.871 70.1193 477.03 70ZM473.433 78.233C473.831 78.233 474.189 78.1335 474.507 77.9347C474.828 77.7358 475.095 77.456 475.308 77.0952C475.521 76.7315 475.669 76.304 475.751 75.8125C475.831 75.3352 475.821 74.929 475.722 74.5938C475.622 74.2585 475.443 74.0028 475.185 73.8267C474.926 73.6506 474.598 73.5625 474.2 73.5625C473.908 73.5625 473.636 73.6122 473.386 73.7116C473.136 73.8111 472.912 73.9574 472.713 74.1506C472.517 74.3437 472.351 74.5795 472.214 74.858C472.081 75.1364 471.982 75.4545 471.916 75.8125C471.794 76.5455 471.868 77.1321 472.138 77.5724C472.411 78.0128 472.842 78.233 473.433 78.233ZM480.463 79.1364C479.861 79.1364 479.357 78.9929 478.951 78.706C478.544 78.419 478.257 78.017 478.09 77.5C477.925 76.983 477.898 76.3807 478.009 75.6932C478.117 75.0227 478.331 74.4389 478.652 73.9418C478.976 73.4418 479.378 73.0554 479.858 72.7827C480.341 72.5071 480.873 72.3693 481.452 72.3693C482.054 72.3693 482.557 72.5142 482.961 72.804C483.367 73.0909 483.654 73.4943 483.821 74.0142C483.989 74.5312 484.017 75.1364 483.907 75.8295C483.799 76.4943 483.581 77.0753 483.255 77.5724C482.931 78.0668 482.529 78.4517 482.049 78.7273C481.571 79 481.043 79.1364 480.463 79.1364ZM480.48 78.233C480.941 78.233 481.34 78.1151 481.678 77.8793C482.019 77.6435 482.294 77.3324 482.505 76.946C482.718 76.5597 482.861 76.142 482.935 75.6932C483.003 75.267 483 74.8707 482.926 74.5043C482.853 74.1349 482.695 73.8381 482.453 73.6136C482.212 73.3864 481.873 73.2727 481.435 73.2727C480.975 73.2727 480.573 73.392 480.229 73.6307C479.888 73.8693 479.613 74.1832 479.402 74.5724C479.192 74.9616 479.051 75.3807 478.98 75.8295C478.912 76.2557 478.914 76.652 478.985 77.0185C479.059 77.3821 479.216 77.6761 479.458 77.9006C479.702 78.1222 480.043 78.233 480.48 78.233ZM490.053 72.4545L489.899 73.392H486.865L485.928 79H484.922L486.013 72.4545H490.053ZM492.792 79.1364C492.189 79.1364 491.685 78.9929 491.279 78.706C490.873 78.419 490.586 78.017 490.418 77.5C490.253 76.983 490.226 76.3807 490.337 75.6932C490.445 75.0227 490.659 74.4389 490.98 73.9418C491.304 73.4418 491.706 73.0554 492.186 72.7827C492.669 72.5071 493.201 72.3693 493.78 72.3693C494.382 72.3693 494.885 72.5142 495.289 72.804C495.695 73.0909 495.982 73.4943 496.15 74.0142C496.317 74.5312 496.346 75.1364 496.235 75.8295C496.127 76.4943 495.909 77.0753 495.583 77.5724C495.259 78.0668 494.857 78.4517 494.377 78.7273C493.9 79 493.371 79.1364 492.792 79.1364ZM492.809 78.233C493.269 78.233 493.668 78.1151 494.006 77.8793C494.347 77.6435 494.623 77.3324 494.833 76.946C495.046 76.5597 495.189 76.142 495.263 75.6932C495.331 75.267 495.328 74.8707 495.255 74.5043C495.181 74.1349 495.023 73.8381 494.782 73.6136C494.54 73.3864 494.201 73.2727 493.763 73.2727C493.303 73.2727 492.901 73.392 492.557 73.6307C492.216 73.8693 491.941 74.1832 491.73 74.5724C491.52 74.9616 491.38 75.3807 491.309 75.8295C491.24 76.2557 491.242 76.652 491.313 77.0185C491.387 77.3821 491.544 77.6761 491.786 77.9006C492.03 78.1222 492.371 78.233 492.809 78.233ZM508.773 73H507.733C507.722 72.696 507.659 72.429 507.545 72.1989C507.432 71.9688 507.278 71.7756 507.085 71.6193C506.895 71.4602 506.676 71.3409 506.429 71.2614C506.182 71.1818 505.918 71.142 505.636 71.142C505.097 71.142 504.585 71.2798 504.102 71.5554C503.619 71.8281 503.206 72.2301 502.862 72.7614C502.518 73.2898 502.284 73.9375 502.159 74.7045C502.034 75.4489 502.053 76.0753 502.214 76.5838C502.376 77.0923 502.645 77.4773 503.02 77.7386C503.395 78 503.841 78.1307 504.358 78.1307C504.656 78.1307 504.949 78.0909 505.236 78.0114C505.526 77.9318 505.795 77.8139 506.045 77.6577C506.298 77.4986 506.523 77.304 506.719 77.0739C506.918 76.8409 507.074 76.5739 507.188 76.2727H508.244C508.088 76.7187 507.876 77.1179 507.609 77.4702C507.345 77.8224 507.04 78.1222 506.693 78.3693C506.347 78.6136 505.973 78.7997 505.572 78.9276C505.172 79.0554 504.756 79.1193 504.324 79.1193C503.568 79.1193 502.925 78.9347 502.393 78.5653C501.865 78.1932 501.487 77.6676 501.26 76.9886C501.036 76.3068 501 75.5 501.153 74.5682C501.307 73.6591 501.601 72.875 502.036 72.2159C502.47 71.554 503.003 71.0455 503.634 70.6903C504.264 70.3324 504.949 70.1534 505.688 70.1534C506.131 70.1534 506.538 70.2173 506.911 70.3452C507.283 70.473 507.607 70.6605 507.882 70.9077C508.158 71.152 508.372 71.4503 508.526 71.8026C508.682 72.152 508.764 72.5511 508.773 73ZM508.776 79L508.929 78.0625H509.168C509.364 78.0625 509.533 78.0241 509.675 77.9474C509.82 77.8679 509.949 77.7301 510.063 77.5341C510.179 77.3352 510.289 77.0597 510.391 76.7074C510.496 76.3523 510.605 75.9006 510.719 75.3523L511.316 72.4545H515.679L514.588 79H513.583L514.52 73.392H512.117L511.623 75.7273C511.512 76.2642 511.385 76.7372 511.243 77.1463C511.104 77.5526 510.938 77.8935 510.745 78.169C510.554 78.4446 510.326 78.652 510.059 78.7912C509.794 78.9304 509.48 79 509.117 79H508.776ZM516.446 81.4545C516.276 81.4545 516.125 81.4403 515.995 81.4119C515.867 81.3864 515.779 81.3608 515.73 81.3352L516.14 80.4489C516.373 80.5114 516.58 80.5298 516.762 80.5043C516.946 80.4815 517.121 80.392 517.286 80.2358C517.453 80.0824 517.628 79.8409 517.81 79.5114L518.091 79L516.779 72.4545H517.827L518.765 77.6875H518.833L521.509 72.4545H522.642L518.628 79.946C518.441 80.2955 518.235 80.581 518.01 80.8026C517.786 81.0241 517.543 81.1875 517.282 81.2926C517.02 81.4006 516.742 81.4545 516.446 81.4545ZM528.799 72.4545L527.725 79H526.719L527.793 72.4545H528.799ZM527.896 75.5739L527.742 76.5114C527.501 76.5966 527.262 76.6719 527.026 76.7372C526.79 76.7997 526.546 76.8494 526.293 76.8864C526.043 76.9205 525.771 76.9375 525.475 76.9375C524.731 76.9375 524.168 76.7372 523.788 76.3366C523.407 75.9361 523.282 75.3352 523.413 74.5341L523.754 72.4375H524.759L524.418 74.5341C524.364 74.8693 524.383 75.1449 524.474 75.3608C524.565 75.5767 524.711 75.7372 524.913 75.8423C525.117 75.9474 525.356 76 525.629 76C526.052 76 526.442 75.9616 526.8 75.8849C527.161 75.8054 527.526 75.7017 527.896 75.5739ZM531.479 79.1534C531.065 79.1534 530.701 79.0753 530.388 78.919C530.076 78.7599 529.844 78.5312 529.694 78.233C529.543 77.9318 529.502 77.5682 529.57 77.142C529.636 76.767 529.762 76.4631 529.95 76.2301C530.137 75.9943 530.364 75.8097 530.631 75.6761C530.901 75.5398 531.191 75.4389 531.501 75.3736C531.813 75.3054 532.124 75.2528 532.434 75.2159C532.837 75.1648 533.165 75.125 533.418 75.0966C533.671 75.0682 533.862 75.0213 533.989 74.956C534.117 74.8906 534.195 74.7784 534.224 74.6193V74.5852C534.292 74.1676 534.237 73.8423 534.058 73.6094C533.879 73.3736 533.559 73.2557 533.099 73.2557C532.621 73.2557 532.222 73.3608 531.901 73.571C531.58 73.7812 531.343 74.0057 531.19 74.2443L530.303 73.9034C530.536 73.5057 530.815 73.196 531.138 72.9744C531.462 72.75 531.802 72.5937 532.157 72.5057C532.512 72.4148 532.854 72.3693 533.184 72.3693C533.394 72.3693 533.631 72.3949 533.896 72.446C534.16 72.4943 534.407 72.5952 534.637 72.7486C534.87 72.902 535.045 73.1335 535.161 73.4432C535.281 73.7528 535.298 74.1676 535.212 74.6875L534.496 79H533.491L533.644 78.1136H533.593C533.502 78.2557 533.363 78.4077 533.175 78.5696C532.991 78.7315 532.756 78.8693 532.472 78.983C532.191 79.0966 531.86 79.1534 531.479 79.1534ZM531.769 78.25C532.167 78.25 532.515 78.1719 532.813 78.0156C533.114 77.8594 533.356 77.6577 533.538 77.4105C533.722 77.1634 533.837 76.9034 533.883 76.6307L534.036 75.7102C533.985 75.7614 533.884 75.8082 533.734 75.8509C533.583 75.8906 533.413 75.9261 533.222 75.9574C533.035 75.9858 532.852 76.0114 532.673 76.0341C532.496 76.054 532.354 76.071 532.246 76.0852C531.979 76.1193 531.725 76.1747 531.484 76.2514C531.245 76.3253 531.043 76.4375 530.879 76.5881C530.717 76.7358 530.616 76.9375 530.576 77.1932C530.516 77.5426 530.6 77.8068 530.827 77.9858C531.055 78.1619 531.369 78.25 531.769 78.25ZM540.27 79L541.207 73.375H539.468C539.074 73.375 538.748 73.4659 538.493 73.6477C538.24 73.8295 538.088 74.0795 538.037 74.3977C537.983 74.7102 538.042 74.956 538.216 75.1349C538.392 75.3139 538.656 75.4034 539.008 75.4034H541.122L540.968 76.3409H538.855C538.412 76.3409 538.042 76.2628 537.747 76.1065C537.451 75.9503 537.241 75.7273 537.116 75.4375C536.994 75.1449 536.966 74.7983 537.031 74.3977C537.099 73.9943 537.247 73.6477 537.474 73.358C537.704 73.0682 538.001 72.8452 538.365 72.6889C538.731 72.5327 539.15 72.4545 539.622 72.4545H542.315L541.224 79H540.27ZM535.906 79L538.309 75.7443H539.4L536.997 79H535.906ZM543.923 79.0682C543.707 79.0682 543.526 78.9943 543.381 78.8466C543.237 78.696 543.161 78.5142 543.156 78.3011C543.153 78.0881 543.228 77.9105 543.381 77.7685C543.535 77.6236 543.715 77.5511 543.923 77.5511C544.133 77.5511 544.315 77.625 544.468 77.7727C544.621 77.9205 544.695 78.0966 544.69 78.3011C544.687 78.4432 544.65 78.5724 544.579 78.6889C544.511 78.8054 544.418 78.8977 544.302 78.9659C544.188 79.0341 544.062 79.0682 543.923 79.0682Z" fill="white"/>
</svg>
